<svg width="34" height="34" viewBox="0 0 34 34" fill="none" xmlns="http://www.w3.org/2000/svg">
<path d="M20.1928 5.81451C18.3281 5.81451 16.4632 5.81451 14.5985 5.81451C14.3347 5.81451 14.071 5.81451 13.8072 5.81451C13.2945 5.81451 13.2935 6.61139 13.8072 6.61139H19.4015H20.1928C20.7055 6.61139 20.7065 5.81451 20.1928 5.81451Z" fill="white"/>
<path d="M21.327 3.70813C18.798 3.70813 16.269 3.70813 13.7397 3.70813C13.3841 3.70813 13.0284 3.70813 12.673 3.70813C12.1603 3.70813 12.1593 4.505 12.673 4.505H20.2603H21.327C21.8397 4.505 21.8408 3.70813 21.327 3.70813Z" fill="white"/>
<path d="M27.8609 19.1872C27.8617 19.1864 27.8627 19.1853 27.8635 19.1845C27.7695 19.2233 27.6757 19.2623 27.5817 19.3011H30.4247C31.0215 19.3011 31.5833 19.4052 32.0532 19.8074C32.547 20.2303 32.8007 20.8293 32.8047 21.4737C32.8174 23.4951 32.8047 25.5167 32.8047 27.5381V28.836C32.8047 29.1348 32.8148 29.431 32.7399 29.7234C32.5313 30.5389 31.8484 31.1698 31.0167 31.309C30.6587 31.369 30.2693 31.3355 29.9083 31.3355C28.866 31.3355 27.8234 31.3416 26.7811 31.3355C25.4838 31.3281 24.5984 30.3142 24.5984 29.0533C24.5984 27.0494 24.5984 25.0455 24.5984 23.0414C24.5984 22.9813 24.5984 22.9213 24.5984 22.8613C24.5984 22.3486 23.8016 22.3476 23.8016 22.8613V28.866C23.8016 29.3154 23.8149 29.7596 23.974 30.1885C24.2978 31.0614 25.0102 31.7515 25.9082 32.0153C26.3742 32.152 26.8533 32.1324 27.3323 32.1324H29.2865C29.7362 32.1324 30.1864 32.1372 30.6361 32.1324C31.4529 32.1236 32.2405 31.8115 32.8031 31.2101C33.3258 30.6515 33.5928 29.9288 33.6015 29.168C33.605 28.8758 33.6015 28.5836 33.6015 28.2915C33.6015 26.0549 33.6015 23.8183 33.6015 21.5818C33.6015 20.0382 32.5637 18.7069 30.9881 18.5244C30.5357 18.4721 30.0658 18.504 29.6116 18.504C29.0092 18.504 28.4067 18.504 27.8045 18.504C27.6255 18.504 27.4377 18.4832 27.2975 18.6232C26.9344 18.9869 27.4977 19.5505 27.8609 19.1872Z" fill="white"/>
<path d="M26.0347 21.7533C26.4961 21.9653 26.9577 22.1773 27.4191 22.389C27.9833 22.648 28.5552 23.0291 29.1861 22.7548C30.1442 22.338 31.0821 21.867 32.0282 21.4242C32.4293 21.2364 32.8304 21.0486 33.2315 20.8608C33.6956 20.6436 33.2916 19.9564 32.8294 20.1729C31.9385 20.5899 31.0473 21.0072 30.1564 21.4242C29.7298 21.624 29.3051 21.8588 28.8654 22.0285C28.5746 22.1409 28.246 21.896 27.9623 21.7656C27.4539 21.5321 26.9455 21.2986 26.4368 21.0651C25.9741 20.8529 25.5688 21.5395 26.0347 21.7533Z" fill="white"/>
<path d="M23.9984 24.2066C25.2745 24.8553 26.5508 25.5042 27.8269 26.1529C27.9852 26.2334 28.1424 26.3258 28.3087 26.3896C28.688 26.5349 29.0179 26.4233 29.3635 26.2708C30.0775 25.9555 30.7912 25.6402 31.5052 25.3247C32.1379 25.0452 32.7709 24.7655 33.4036 24.4861C33.8717 24.2792 33.4666 23.5925 33.0015 23.7981C31.7416 24.3546 30.482 24.9111 29.2222 25.4676C29.0886 25.5265 28.9223 25.6285 28.7855 25.6586C28.6096 25.6971 28.4601 25.5823 28.2981 25.5C27.574 25.1318 26.8499 24.7639 26.1258 24.3958C25.5507 24.1033 24.9754 23.8109 24.4003 23.5187C23.9445 23.2868 23.5407 23.974 23.9984 24.2066Z" fill="white"/>
<path d="M23.9984 27.9334C25.2723 28.5414 26.5463 29.1497 27.8202 29.7577C28.0059 29.8464 28.2027 29.9641 28.4022 30.0207C28.748 30.1187 29.0556 30.0053 29.3638 29.8639C30.0778 29.5362 30.7915 29.2084 31.5055 28.8806C32.1382 28.59 32.7712 28.2997 33.4039 28.0091C33.8693 27.7953 33.465 27.1084 33.0018 27.3211C31.7552 27.8935 30.5083 28.466 29.2618 29.0381C29.1138 29.1061 28.9443 29.2201 28.785 29.257C28.6187 29.2955 28.4529 29.1794 28.293 29.1032C27.5796 28.7627 26.8658 28.4219 26.1524 28.0813C25.5685 27.8027 24.9849 27.5241 24.4011 27.2454C23.9402 27.0255 23.5354 27.7124 23.9984 27.9334Z" fill="white"/>
<path d="M9.40205 22.8621V28.5943C9.40205 28.8416 9.41135 29.0912 9.39781 29.3383C9.35291 30.1681 8.78368 30.9243 8.00381 31.2061C7.58916 31.356 7.16656 31.336 6.73518 31.336C6.14602 31.336 5.55687 31.336 4.96745 31.336C3.92381 31.336 2.67032 31.5337 1.85087 30.74C1.1382 30.0496 1.19584 29.1683 1.19584 28.2697C1.19584 26.1019 1.19584 23.9341 1.19584 21.7664C1.19584 21.4306 1.19424 21.1076 1.29731 20.7809C1.54673 19.9888 2.27295 19.3978 3.09904 19.3123C3.5012 19.2706 3.91982 19.3016 4.32277 19.3016H6.07563H6.41855C6.93121 19.3016 6.93227 18.5048 6.41855 18.5048C5.42618 18.5048 4.4338 18.5024 3.44143 18.5048C1.78313 18.5087 0.42393 19.75 0.398961 21.4378C0.368149 23.516 0.398961 25.5969 0.398961 27.6755C0.398961 28.4938 0.288196 29.453 0.587289 30.2305C0.916399 31.0853 1.62376 31.7571 2.50696 32.016C2.97313 32.1528 3.45285 32.1332 3.93204 32.1332C5.03093 32.1332 6.13062 32.1449 7.22924 32.1332C8.87506 32.1156 10.1795 30.8207 10.1984 29.1725C10.2218 27.1336 10.1984 25.0933 10.1984 23.0544C10.1984 22.9904 10.1984 22.9263 10.1984 22.8623C10.1989 22.3494 9.40205 22.3486 9.40205 22.8621Z" fill="white"/>
<path d="M0.765795 20.8635C1.72311 21.3108 2.68042 21.7579 3.63773 22.2052C4.02315 22.3853 4.40565 22.5752 4.79533 22.746C5.37811 23.0015 5.83897 22.7295 6.35826 22.4902C6.89297 22.2437 7.42794 21.9972 7.96264 21.7507C8.42775 21.5363 8.02347 20.8492 7.56048 21.0627C7.12858 21.2619 6.69667 21.4609 6.26476 21.6601C5.98479 21.7892 5.4902 22.1401 5.1927 22.0559C4.811 21.9478 4.42584 21.6976 4.06751 21.5302C3.4749 21.2534 2.8823 20.9764 2.28969 20.6996C1.91595 20.5251 1.54195 20.3503 1.16822 20.1758C0.706029 19.9599 0.300951 20.6465 0.765795 20.8635Z" fill="white"/>
<path d="M0.595763 24.3767L4.41997 26.1656C4.60564 26.2525 4.80273 26.3683 5.00115 26.4249C5.34673 26.5234 5.65565 26.4097 5.96351 26.2679C6.67698 25.9393 7.39045 25.6107 8.10392 25.2819C8.73637 24.9905 9.36882 24.6994 10.001 24.408C10.4664 24.1936 10.0618 23.5067 9.59886 23.72C8.35308 24.294 7.10703 24.8678 5.86125 25.4418C5.71356 25.5098 5.54409 25.6246 5.38472 25.6612C5.21843 25.6997 5.05269 25.5852 4.89251 25.5103C4.17851 25.1764 3.46451 24.8423 2.75051 24.5084C2.1664 24.2351 1.58229 23.962 0.998185 23.6887C0.536263 23.4725 0.131185 24.1591 0.595763 24.3767Z" fill="white"/>
<path d="M0.595815 27.9334C1.87055 28.5414 3.14528 29.1497 4.42002 29.7577C4.60542 29.8462 4.80225 29.9638 5.0012 30.0207C5.34678 30.1192 5.65571 30.0055 5.96356 29.8639C6.67703 29.5367 7.3905 29.2094 8.10397 28.8819C8.73642 28.5919 9.36888 28.3015 10.0011 28.0115C10.4667 27.7979 10.0622 27.1107 9.59891 27.3235C8.35313 27.8951 7.10708 28.4668 5.8613 29.0384C5.71361 29.1061 5.54414 29.2203 5.38477 29.257C5.21742 29.2955 5.053 29.1797 4.89256 29.1032C4.17856 28.7627 3.46456 28.4219 2.75056 28.0813C2.16646 27.8027 1.58235 27.5241 0.998237 27.2454C0.537377 27.0255 0.132565 27.7124 0.595815 27.9334Z" fill="white"/>
<path d="M20.8877 23.3352C20.8877 24.4293 20.9004 25.5242 20.8877 26.6183C20.8824 27.0704 20.5575 27.4677 20.0932 27.5055C19.643 27.5419 19.2201 27.2159 19.1558 26.7644C19.1311 26.5912 19.1497 26.4026 19.1497 26.2286C19.1497 25.8828 19.1497 25.5369 19.1497 25.1911C19.1497 24.5724 19.1497 23.9538 19.1497 23.3354C19.0169 23.4682 18.8841 23.601 18.7513 23.7339H21.2861C21.7988 23.7339 21.7998 22.937 21.2861 22.937C20.4412 22.937 19.5962 22.937 18.7513 22.937C18.5358 22.937 18.3528 23.1195 18.3528 23.3354V25.1008V26.2289C18.3528 26.4743 18.3422 26.7197 18.386 26.9625C18.4973 27.579 18.9983 28.1031 19.6052 28.2529C20.3068 28.4264 21.046 28.1284 21.4333 27.5193C21.8067 26.932 21.6846 26.0799 21.6846 25.4147C21.6846 24.7217 21.6846 24.0287 21.6846 23.3357C21.6846 22.8225 20.8877 22.8217 20.8877 23.3352Z" fill="white"/>
<path d="M14.8481 23.3352C14.8481 24.429 14.8651 25.5244 14.8481 26.6183C14.8426 26.9825 14.6433 27.3124 14.2967 27.4494C13.7809 27.6532 13.188 27.3017 13.1147 26.7527C13.0921 26.583 13.1099 26.3991 13.1099 26.2289C13.1099 25.883 13.1099 25.5372 13.1099 25.1913C13.1099 24.5727 13.1099 23.9541 13.1099 23.3357C12.9771 23.4685 12.8443 23.6013 12.7114 23.7341H15.2463C15.759 23.7341 15.76 22.9373 15.2463 22.9373C14.4014 22.9373 13.5564 22.9373 12.7114 22.9373C12.496 22.9373 12.313 23.1197 12.313 23.3357V25.101V26.2291C12.313 26.4873 12.3013 26.7455 12.3534 27.0003C12.5024 27.7307 13.1707 28.2646 13.9044 28.3029C14.5291 28.3356 15.1552 27.9836 15.4463 27.4282C15.7537 26.8414 15.645 26.0557 15.645 25.415C15.645 24.722 15.645 24.029 15.645 23.336C15.645 22.8225 14.8481 22.8217 14.8481 23.3352Z" fill="white"/>
<path d="M23.8016 22.8647V26.2419V26.7195L24.306 26.3354C23.3346 25.9685 22.3635 25.602 21.3921 25.2352C21.4896 25.3632 21.5871 25.4912 21.6846 25.6192C21.6846 24.858 21.6846 24.0964 21.6846 23.3351C21.5518 23.468 21.4189 23.6008 21.2861 23.7336C21.6272 23.7336 21.9701 23.7429 22.3106 23.719C22.9978 23.6709 23.6709 23.5166 24.306 23.2488C24.5042 23.1654 24.6466 22.9856 24.5844 22.7587C24.5331 22.572 24.2938 22.3964 24.0943 22.4804C23.5052 22.7287 22.8809 22.8892 22.2416 22.9263C21.9239 22.9449 21.6044 22.9364 21.2861 22.9364C21.0707 22.9364 20.8877 23.1189 20.8877 23.3349V25.619C20.8877 25.8076 21.0139 25.9404 21.1801 26.0031C22.1515 26.3699 23.1227 26.7365 24.0941 27.1033C24.3408 27.1965 24.5985 26.9585 24.5985 26.7192C24.5985 25.5935 24.5985 24.4678 24.5985 23.342C24.5985 23.1829 24.5985 23.0236 24.5985 22.8645C24.5985 22.3521 23.8016 22.3513 23.8016 22.8647Z" fill="white"/>
<path d="M18.3528 23.3351V25.6193L18.7512 25.2208C17.7278 25.2208 16.7043 25.2208 15.6809 25.2208C15.5361 25.2208 15.3913 25.2208 15.2466 25.2208L15.645 25.6193C15.645 24.858 15.645 24.0964 15.645 23.3351C15.5122 23.468 15.3794 23.6008 15.2466 23.7336H18.3169H18.7512C19.2639 23.7336 19.265 22.9367 18.7512 22.9367C17.7278 22.9367 16.7043 22.9367 15.6809 22.9367C15.5361 22.9367 15.3913 22.9367 15.2466 22.9367C15.0312 22.9367 14.8481 23.1192 14.8481 23.3351V25.6193C14.8481 25.8347 15.0306 26.0177 15.2466 26.0177H18.3169H18.7512C18.9667 26.0177 19.1497 25.8352 19.1497 25.6193C19.1497 24.858 19.1497 24.0964 19.1497 23.3351C19.1497 22.8225 18.3528 22.8217 18.3528 23.3351Z" fill="white"/>
<path d="M12.3133 23.3351V25.6193C12.4108 25.4912 12.5083 25.3632 12.6057 25.2352C11.6354 25.602 10.6648 25.9686 9.69449 26.3354L10.1989 26.7195C10.1989 25.5938 10.1989 24.468 10.1989 23.3423C10.1989 23.1832 10.1989 23.0238 10.1989 22.8647C10.0308 22.9928 9.86263 23.1208 9.69449 23.2488C10.3362 23.5192 11.0168 23.6744 11.7116 23.7203C12.0439 23.7424 12.3786 23.7333 12.7117 23.7333C13.2244 23.7333 13.2254 22.9364 12.7117 22.9364C12.4025 22.9364 12.0918 22.9444 11.7828 22.9277C11.135 22.8926 10.5033 22.7316 9.90646 22.4804C9.66155 22.3773 9.40204 22.6331 9.40204 22.8645V26.2416V26.7192C9.40204 26.9585 9.65969 27.1965 9.90646 27.1033C10.8768 26.7365 11.8474 26.3699 12.8177 26.0031C12.984 25.9401 13.1102 25.806 13.1102 25.619C13.1102 24.8577 13.1102 24.0962 13.1102 23.3349C13.1102 22.8225 12.3133 22.8217 12.3133 23.3351Z" fill="white"/>
<path d="M25.4174 2.76435C25.4174 3.86484 25.3608 4.97993 25.4174 6.07882C25.4434 6.5867 25.8118 6.95379 26.3202 6.97769C26.4979 6.98593 26.678 6.97769 26.8557 6.97769H29.0899C29.6004 6.97769 30.1335 7.01913 30.6417 6.95379C31.7249 6.8146 32.6386 5.96991 32.8296 4.88696C33.019 3.81224 32.505 2.69263 31.5334 2.17413C30.9413 1.85831 30.3253 1.86707 29.6804 1.86707C28.8413 1.86707 28.0022 1.86707 27.1628 1.86707C26.8972 1.86707 26.6302 1.85937 26.3646 1.86707C25.8256 1.88248 25.4652 2.22965 25.4174 2.76435C25.3717 3.27488 26.1688 3.27196 26.2142 2.76435C26.2328 2.55743 27.1445 2.66395 27.2751 2.66395H29.3287C29.7234 2.66395 30.1418 2.62596 30.5354 2.67537C31.4447 2.78959 32.1154 3.60346 32.075 4.51349C32.0335 5.44929 31.2377 6.16488 30.3184 6.18082C29.9396 6.1872 29.56 6.18082 29.1813 6.18082C28.5084 6.18082 27.8356 6.18082 27.1628 6.18082C26.9729 6.18082 26.2867 6.2977 26.2142 6.06926C26.1627 5.9067 26.2142 5.64054 26.2142 5.4724C26.2142 5.10026 26.2142 4.72812 26.2142 4.35598C26.2142 3.82526 26.2142 3.29507 26.2142 2.76435C26.2142 2.2517 25.4174 2.25063 25.4174 2.76435Z" fill="white"/>
<path d="M19.9102 10.2714C20.111 9.08144 20.3116 7.89144 20.5124 6.70144C20.6303 6.00284 20.8003 5.33825 21.2524 4.76822C21.8976 3.95487 22.8716 3.50278 23.9033 3.49295C24.5406 3.48684 25.1783 3.49295 25.8158 3.49295C25.683 3.36014 25.5502 3.22733 25.4174 3.09452V5.62327L25.8158 5.22483C25.3374 5.22483 24.8593 5.22483 24.3809 5.22483C23.7267 5.22483 23.1216 5.34436 22.6977 5.89845C22.4137 6.2698 22.3609 6.70223 22.279 7.14503C22.1717 7.72516 22.0647 8.30528 21.9574 8.88514C21.8793 9.30748 21.8012 9.73009 21.7231 10.1524C21.6304 10.6537 22.3983 10.8686 22.4915 10.3644C22.6517 9.49714 22.8121 8.62987 22.9723 7.76288C23.0313 7.44359 23.0812 7.12112 23.1495 6.8037C23.2804 6.19542 23.7485 6.0217 24.3055 6.0217H25.8153C26.0307 6.0217 26.2137 5.83922 26.2137 5.62327C26.2137 4.78044 26.2137 3.93734 26.2137 3.09452C26.2137 2.87909 26.0313 2.69608 25.8153 2.69608C25.1945 2.69608 24.574 2.69422 23.9533 2.69608C22.9038 2.69953 21.9069 3.056 21.1183 3.75486C20.3963 4.39475 19.9503 5.27158 19.7893 6.21534C19.6775 6.87037 19.5683 7.52567 19.4578 8.18097C19.3521 8.80705 19.2467 9.43339 19.1409 10.0595C19.0573 10.5612 19.8249 10.7767 19.9102 10.2714Z" fill="white"/>
<path d="M7.78625 2.76435V5.90351C7.78625 6.02862 7.81547 6.13593 7.67655 6.18109C7.56233 6.21801 7.37453 6.18109 7.25633 6.18109C6.61166 6.18109 5.96725 6.18109 5.32258 6.18109C4.17641 6.18109 2.67297 6.43077 2.08302 5.15896C1.70663 4.34774 2.02538 3.35457 2.79436 2.90407C3.25177 2.63632 3.74131 2.66395 4.24706 2.66395H6.45733H7.37666C7.47653 2.66395 7.77244 2.61082 7.78625 2.76435C7.83167 3.27117 8.62908 3.27595 8.58313 2.76435C8.53664 2.24612 8.19239 1.88938 7.66327 1.86707C7.4752 1.8591 7.28502 1.86707 7.09695 1.86707C6.3378 1.86707 5.57838 1.86707 4.81922 1.86707C4.29488 1.86707 3.73706 1.81952 3.2175 1.9109C2.13481 2.10188 1.28986 3.01563 1.15067 4.09885C1.01228 5.1741 1.59374 6.26688 2.58266 6.72748C3.16145 6.99709 3.75274 6.9777 4.37084 6.9777H6.66744C7.1538 6.9777 7.89781 7.10227 8.28908 6.74368C8.56055 6.49506 8.58313 6.17259 8.58313 5.83445C8.58313 5.46284 8.58313 5.09096 8.58313 4.71935C8.58313 4.06751 8.58313 3.4162 8.58313 2.76435C8.58313 2.2517 7.78625 2.25063 7.78625 2.76435Z" fill="white"/>
<path d="M12.2522 10.1577C12.086 9.22301 11.9197 8.28827 11.7537 7.35354C11.6859 6.9721 11.6527 6.55188 11.4854 6.19781C11.1703 5.53082 10.5113 5.22482 9.80184 5.22482C9.26236 5.22482 8.72314 5.22482 8.18365 5.22482L8.58209 5.62326C8.58209 4.78043 8.58209 3.93734 8.58209 3.09451C8.44928 3.22732 8.31647 3.36013 8.18365 3.49295C8.7845 3.49295 9.38534 3.49188 9.98619 3.49295C10.9254 3.49481 11.8055 3.79842 12.4791 4.47071C13.5272 5.51674 13.5671 7.17398 13.8 8.55496C13.8965 9.12712 13.9931 9.69927 14.0896 10.2714C14.1746 10.7761 14.9427 10.562 14.858 10.0595C14.65 8.8259 14.4418 7.59234 14.2338 6.35877C14.0896 5.50346 13.7793 4.72465 13.1955 4.06856C12.4164 3.19279 11.2824 2.70962 10.1174 2.69581C9.473 2.6881 8.82806 2.69581 8.18365 2.69581C7.96823 2.69581 7.78522 2.87829 7.78522 3.09424V5.62299C7.78522 5.83842 7.9677 6.02143 8.18365 6.02143H9.50753C10.0305 6.02143 10.5955 6.03259 10.8048 6.62679C10.9084 6.92084 10.9307 7.26084 10.9849 7.56524C11.0851 8.12863 11.1852 8.69176 11.2854 9.25515C11.3515 9.62649 11.4174 9.9981 11.4835 10.3694C11.5736 10.8736 12.3417 10.66 12.2522 10.1577Z" fill="white"/>
<path d="M27.3583 16.3261C27.3583 17.4285 27.3774 18.4981 26.9543 19.5434C26.4087 20.8911 25.322 21.9398 23.9989 22.5181C23.8746 22.5723 23.8016 22.7346 23.8016 22.8621V22.8647C23.8991 22.7367 23.9966 22.6087 24.094 22.4806C22.8082 23.0161 21.4891 22.9367 20.1341 22.9367C18.4848 22.9367 16.8358 22.9367 15.1866 22.9367C14.1637 22.9367 13.1405 22.9415 12.1175 22.9367C9.48493 22.9245 7.21543 21.0346 6.72562 18.4498C6.63239 17.9581 6.63956 17.4619 6.63956 16.9644C6.63956 16.6029 6.59573 16.2031 6.72031 15.8573C6.9437 15.2365 7.51851 14.9342 8.14804 14.9319C8.98662 14.9289 9.8252 14.9319 10.6638 14.9319H20.3687H24.4728H25.6283C25.929 14.9319 26.2217 14.9194 26.5078 15.0402C27.0297 15.261 27.3442 15.7686 27.3583 16.3261C27.3713 16.838 28.1682 16.8398 28.1552 16.3261C28.1246 15.1119 27.1766 14.1607 25.9601 14.135C25.7577 14.1307 25.5547 14.135 25.352 14.135C24.1674 14.135 22.9829 14.135 21.7982 14.135C18.3592 14.135 14.9199 14.135 11.4808 14.135C10.4343 14.135 9.38745 14.135 8.34089 14.135C7.92492 14.135 7.52701 14.1554 7.13575 14.3302C6.58909 14.5746 6.16728 15.041 5.96593 15.6036C5.81665 16.0209 5.84268 16.4632 5.84268 16.8985C5.84268 18.1196 5.98612 19.2764 6.55721 20.3769C7.16125 21.5406 8.15681 22.5128 9.33486 23.0879C10.2574 23.5381 11.2466 23.7336 12.2687 23.7336H13.7604C16.5102 23.7336 19.266 23.7896 22.0153 23.7323C22.8031 23.7158 23.5793 23.5514 24.306 23.2488C24.4712 23.18 24.5985 23.056 24.5985 22.8647C24.5985 22.8639 24.5985 22.8629 24.5985 22.8621C24.5326 22.9768 24.467 23.0913 24.4011 23.2061C25.8488 22.5736 27.0252 21.3942 27.6457 19.9402C28.1456 18.7691 28.1552 17.5716 28.1552 16.3261C28.1552 15.8135 27.3583 15.8127 27.3583 16.3261Z" fill="white"/>
<path d="M27.0252 19.9051C25.6514 19.9051 24.2776 19.9051 22.904 19.9051L23.3025 20.3036C23.3025 19.882 23.2998 19.4602 23.3025 19.0387C23.3062 18.4415 23.6587 17.9382 24.2356 17.7615C25.1026 17.4959 25.9784 17.2566 26.8491 17.004C27.187 16.906 27.5249 16.8082 27.863 16.7102C28.3547 16.5678 28.1454 15.7986 27.651 15.9418C26.7816 16.1938 25.9122 16.4456 25.0428 16.6977C24.7005 16.7971 24.3557 16.8906 24.0149 16.9958C23.1771 17.2542 22.5789 17.9762 22.5112 18.8554C22.4743 19.334 22.5053 19.8239 22.5053 20.3036C22.5053 20.519 22.6878 20.702 22.9038 20.702H27.0249C27.5379 20.702 27.5387 19.9051 27.0252 19.9051Z" fill="white"/>
<path d="M6.13516 16.7105C6.95434 16.9479 7.77353 17.1854 8.59272 17.4226C8.96964 17.5318 9.34736 17.6394 9.72402 17.7504C10.2943 17.9188 10.685 18.3911 10.6957 18.9943C10.7034 19.4305 10.6957 19.8674 10.6957 20.3036L11.0941 19.9051C9.7195 19.9051 8.34489 19.9051 6.97028 19.9051C6.45763 19.9051 6.45656 20.702 6.97028 20.702H11.0941C11.3095 20.702 11.4925 20.5195 11.4925 20.3036C11.4925 19.8722 11.4987 19.4403 11.4925 19.0089C11.4798 18.1257 10.9491 17.3509 10.1182 17.0406C9.81406 16.927 9.49106 16.8531 9.17975 16.7631C8.60892 16.5976 8.03809 16.4321 7.46727 16.2669C7.0938 16.1588 6.72033 16.0504 6.34686 15.9423C5.85359 15.7988 5.64269 16.5676 6.13516 16.7105Z" fill="white"/>
<path d="M14.3281 17.1432C14.241 17.7222 14.1538 18.301 14.067 18.8801C13.9809 19.4522 13.8497 20.0355 13.808 20.613C13.7703 21.1344 14.1828 21.5114 14.6832 21.53C14.8801 21.5371 15.0785 21.53 15.2753 21.53H17.6303C18.1911 21.53 18.7558 21.5499 19.3163 21.53C19.8438 21.5114 20.2497 21.1042 20.1843 20.5602C20.1612 20.3668 20.1272 20.1742 20.0983 19.9816C19.9822 19.2108 19.8664 18.4399 19.7503 17.6688C19.7243 17.4951 19.7097 17.3147 19.6711 17.1432C19.571 16.6969 19.1893 16.4719 18.7547 16.4663C17.96 16.4562 17.1642 16.4663 16.3694 16.4663C15.6889 16.4663 14.5366 16.252 14.3281 17.1432C14.2112 17.642 14.9794 17.855 15.0965 17.3551C15.1305 17.2096 15.3173 17.2635 15.4472 17.2635H16.3697H18.4506C18.5367 17.2635 18.7704 17.2202 18.8472 17.2595C18.9404 17.3073 18.9399 17.6014 18.9534 17.6909C19.0557 18.3709 19.158 19.0509 19.2602 19.7309C19.3019 20.0079 19.3436 20.285 19.3853 20.562C19.3904 20.595 19.4196 20.6815 19.4082 20.714C19.4238 20.6688 19.3651 20.7302 19.3256 20.7328C18.8618 20.7644 18.3845 20.7328 17.9196 20.7328C17.1828 20.7328 16.4457 20.7328 15.7088 20.7328C15.4421 20.7328 15.1754 20.7328 14.9087 20.7328C14.8099 20.7328 14.6816 20.7572 14.6062 20.7031C14.5735 20.6794 14.5998 20.7336 14.5935 20.7004C14.5884 20.6749 14.6038 20.6345 14.6073 20.6082C14.624 20.4831 14.6447 20.3585 14.6636 20.2337C14.721 19.8531 14.7781 19.4724 14.8354 19.0918C14.9226 18.5127 15.0097 17.9342 15.0965 17.3551C15.1287 17.1408 15.0426 16.9291 14.8182 16.8648C14.6304 16.8109 14.36 16.9307 14.3281 17.1432Z" fill="white"/>
<path d="M19.5357 18.5034C18.0447 18.5034 16.5535 18.5034 15.0625 18.5034C14.8516 18.5034 14.6407 18.5034 14.4298 18.5034C13.9172 18.5034 13.9161 19.3003 14.4298 19.3003H18.9029H19.5357C20.0483 19.3003 20.0491 18.5034 19.5357 18.5034Z" fill="white"/>
<path d="M25.2713 14.5326C25.2713 13.6916 25.2684 12.8926 24.9188 12.1061C24.4877 11.1366 23.6635 10.3873 22.6754 10.013C21.7021 9.64457 20.5488 9.7665 19.5253 9.7665C18.0131 9.7665 16.5012 9.7665 14.989 9.7665C14.0412 9.7665 13.0369 9.67698 12.095 9.81564C10.9151 9.98936 9.85098 10.7254 9.25704 11.7582C8.75395 12.6331 8.72925 13.5562 8.72925 14.5326C8.72925 14.748 8.91173 14.931 9.12769 14.931H14.4543H22.9365H24.8729C25.3855 14.931 25.3866 14.1342 24.8729 14.1342C23.0974 14.1342 21.3217 14.1342 19.5463 14.1342C16.719 14.1342 13.8914 14.1342 11.0641 14.1342C10.4186 14.1342 9.77315 14.1342 9.12769 14.1342L9.52612 14.5326C9.52612 13.7963 9.4969 13.0741 9.82415 12.3898C10.2457 11.5079 11.0466 10.8606 11.9996 10.6407C12.3649 10.5565 12.7322 10.5634 13.1033 10.5634H14.6139C16.8422 10.5634 19.0722 10.5387 21.3002 10.5634C22.3858 10.5753 23.4103 11.1228 23.9889 12.0495C24.4752 12.8286 24.4744 13.6505 24.4744 14.5326C24.4744 15.0455 25.2713 15.0463 25.2713 14.5326Z" fill="white"/>
</svg>
