<svg width="34" height="34" viewBox="0 0 34 34" fill="none" xmlns="http://www.w3.org/2000/svg">
<path d="M31.6727 16.9684H24.0403L22.4702 13.7833L23.7772 13.6597C24.2239 13.6155 24.6366 13.4015 24.9301 13.0618C25.2235 12.7221 25.3753 12.2827 25.3541 11.8343C25.3328 11.386 25.1402 10.9628 24.816 10.6524C24.4917 10.342 24.0607 10.1679 23.6118 10.1662H18.6801V6.79481H17.6601V10.166H15.8811L14.0427 6.30359C13.9694 6.15083 13.8546 6.02181 13.7114 5.93133C13.5682 5.84085 13.4024 5.79258 13.233 5.79206H11.5736C11.3598 5.79119 11.1529 5.86708 10.9903 6.00591C10.8278 6.14474 10.7205 6.3373 10.6879 6.54856L10.1145 10.166C9.58127 10.166 9.04738 10.1026 8.53891 10.6131C7.65789 11.4939 8.18769 13.168 9.11895 14.0151C9.44474 14.311 9.82899 14.5353 10.2469 14.6734C10.6648 14.8115 11.107 14.8604 11.5449 14.8168V20.838L11.2593 20.8506V19.0474C11.2588 18.6495 11.1005 18.2681 10.8192 17.9867C10.5378 17.7054 10.1564 17.5471 9.75849 17.5466H2.6162C2.2183 17.5471 1.83683 17.7053 1.55547 17.9867C1.2741 18.268 1.11582 18.6495 1.11535 19.0474V21.3265C0.750875 21.4166 0.43479 21.6429 0.232137 21.959C0.0294836 22.275 -0.0443225 22.6567 0.0259058 23.0256C0.302717 24.483 1.07945 25.7982 2.22215 26.7443C3.36485 27.6903 4.80188 28.208 6.28539 28.2079H10.5616C16.8895 28.2064 23.201 27.5647 29.3997 26.2924C30.3865 26.0893 31.273 25.552 31.9098 24.7712C32.5465 23.9905 32.8945 23.014 32.895 22.0065C32.895 21.0817 32.9862 20.621 32.4972 20.2092L33.0204 19.3062C33.1576 19.0695 33.23 18.8008 33.2304 18.5272C33.2307 18.2536 33.1589 17.9848 33.0223 17.7477C32.8856 17.5107 32.6889 17.3139 32.452 17.1771C32.2151 17.0402 31.9463 16.9683 31.6727 16.9684ZM32.1375 18.7951L31.4609 19.9628L28.7941 20.0799V17.9884H31.6727C31.7671 17.9883 31.8599 18.0131 31.9416 18.0604C32.0234 18.1076 32.0912 18.1755 32.1384 18.2573C32.1855 18.3391 32.2103 18.4319 32.2101 18.5263C32.21 18.6207 32.1849 18.7134 32.1375 18.7951ZM27.7741 17.9884V20.1248L25.6209 20.2194L25.6386 20.2109L24.5431 17.9885L27.7741 17.9884ZM23.639 18.4612L15.0294 17.6103C14.9729 17.6046 14.92 17.5794 14.8799 17.5392C14.8398 17.4989 14.8149 17.4459 14.8094 17.3893L14.7378 16.6328C14.732 16.5684 14.7517 16.5044 14.7927 16.4544C14.8336 16.4045 14.8926 16.3726 14.9568 16.3656L22.2362 15.6156L23.639 18.4612ZM11.679 6.81206H13.1553L14.7516 10.1661H11.1476L11.679 6.81206ZM11.4315 13.8031C11.1375 13.8312 10.8408 13.7976 10.5606 13.7043C10.2804 13.611 10.0228 13.4601 9.80435 13.2613C9.58592 13.0626 9.41147 12.8203 9.29223 12.5501C9.17299 12.2799 9.11159 11.9878 9.11198 11.6924C9.11188 11.6259 9.12489 11.5601 9.15026 11.4987C9.17564 11.4372 9.21288 11.3814 9.25985 11.3344C9.30683 11.2873 9.36261 11.25 9.42402 11.2246C9.48543 11.1991 9.55126 11.1861 9.61773 11.1861H23.6118C23.7986 11.1876 23.9777 11.2607 24.1124 11.3902C24.247 11.5197 24.327 11.6958 24.3358 11.8824C24.3447 12.0691 24.2817 12.252 24.1599 12.3936C24.0381 12.5353 23.8667 12.6249 23.6809 12.6442L11.4315 13.8031ZM12.5651 14.7205L21.3838 13.8861L21.7554 14.6399L14.8523 15.351C14.5207 15.3861 14.2162 15.5504 14.0048 15.8082C13.7933 16.0661 13.6918 16.3968 13.7223 16.7288L13.794 17.4853C13.822 17.7774 13.9505 18.0506 14.1575 18.2585C14.3645 18.4664 14.6372 18.596 14.9291 18.6253L24.1701 19.5387L24.5293 20.2674L12.5649 20.7933L12.5651 14.7205ZM2.6162 18.5666H9.75849C9.88595 18.5668 10.0082 18.6175 10.0983 18.7076C10.1884 18.7977 10.2391 18.9199 10.2393 19.0474V20.8955L2.13535 21.2517V19.0474C2.13551 18.9199 2.18622 18.7977 2.27637 18.7076C2.36651 18.6175 2.48872 18.5668 2.6162 18.5666ZM29.1944 25.2934C23.0633 26.5517 16.8205 27.1864 10.5616 27.1879H6.28539C5.03947 27.1881 3.83255 26.7534 2.87281 25.9589C1.91307 25.1645 1.26067 24.0599 1.02814 22.8359C1.0159 22.7727 1.01744 22.7075 1.03263 22.6449C1.04783 22.5823 1.07634 22.5237 1.11622 22.4731C1.15609 22.4225 1.2064 22.3811 1.26372 22.3517C1.32104 22.3223 1.38402 22.3056 1.44838 22.3027C1.4545 22.3027 31.7795 20.9693 31.7856 20.9693C31.7974 20.9693 31.8091 20.9717 31.82 20.9762C31.8308 20.9807 31.8407 20.9873 31.849 20.9957C31.8573 21.0041 31.8639 21.014 31.8684 21.0249C31.8728 21.0358 31.8751 21.0475 31.875 21.0592C31.875 22.1125 31.8774 22.0694 31.8665 22.2286L16.0531 23.0651L16.107 24.0835L31.63 23.2625C31.4229 23.7756 31.0921 24.2294 30.6672 24.5837C30.2423 24.938 29.7363 25.1818 29.1944 25.2934Z" fill="white"/>
</svg>
