<svg width="31" height="28" viewBox="0 0 31 28" fill="none" xmlns="http://www.w3.org/2000/svg">
<path d="M7.59661 17.9494C7.92452 17.9494 8.19033 18.2152 8.19033 18.5431C8.19033 18.871 7.92452 19.1368 7.59661 19.1368C7.2687 19.1368 7.00289 18.871 7.00289 18.5431C7.00289 18.2152 7.2687 17.9494 7.59661 17.9494ZM3.20607 2.4688H10.9244C11.2522 2.4688 11.5181 2.20299 11.5181 1.87508C11.5181 1.54717 11.2522 1.28136 10.9244 1.28136H3.20607C2.87822 1.28136 2.61236 1.54717 2.61236 1.87508C2.61236 2.20299 2.87822 2.4688 3.20607 2.4688ZM1.8999 8.46534H6.05592C6.38377 8.46534 6.64963 8.19953 6.64963 7.87162C6.64963 7.54371 6.38377 7.2779 6.05592 7.2779H1.8999C1.57204 7.2779 1.30618 7.54371 1.30618 7.87162C1.30618 8.19953 1.57204 8.46534 1.8999 8.46534ZM5.93717 14.3431C6.26502 14.3431 6.53089 14.0773 6.53089 13.7494C6.53089 13.4215 6.26502 13.1557 5.93717 13.1557H0.593717C0.265867 13.1557 0 13.4215 0 13.7494C0 14.0773 0.265867 14.3431 0.593717 14.3431H5.93717ZM30.1608 6.62826V11.584C30.1608 12.8075 29.4596 13.8607 28.3283 14.3266C27.2976 14.7511 26.0834 14.6323 25.0932 13.6831L23.4391 12.0291C23.0565 12.4692 22.5784 12.8304 22.0236 13.0886L18.4831 14.736L21.2776 17.5304C22.5172 18.7806 22.3247 20.9353 20.6381 21.8679L13.5078 25.6957C12.2056 26.3419 11.0833 25.641 10.6414 24.8341C10.0808 23.8104 10.4749 22.5202 11.5028 21.9673L16.8507 19.0904L14.5234 16.7631L3.912 27.3746C2.95974 28.3269 1.64139 28.081 0.919074 27.3746C0.220032 26.691 -0.0296265 25.3298 0.919074 24.3811L5.28765 20.012C5.84414 19.4558 6.68371 20.2959 6.12722 20.8521L1.75865 25.2206C1.35195 25.6273 1.43875 26.2152 1.75865 26.5351C2.08418 26.8607 2.67761 26.9301 3.07255 26.5351L11.8574 17.7503L10.5432 16.4361L9.90564 17.0736C9.346 17.6333 8.50648 16.7938 9.06612 16.2341L18.3559 6.94424L17.0031 5.59139L14.4696 8.12484C13.1109 9.4835 10.9807 9.34552 9.7638 8.12858C9.54145 7.90623 9.52708 7.52566 9.7638 7.28889L14.9078 2.14504C16.0653 0.987589 17.9485 0.987648 19.106 2.14504L20.3343 3.37338C20.4327 1.49379 21.9877 0 23.8918 0C25.8594 0 27.4544 1.59502 27.4544 3.56254C27.4544 5.46671 25.9604 7.02183 24.0806 7.12003L26.2434 9.28366C26.2864 7.48464 27.7609 6.03448 29.5672 6.03448C29.895 6.03454 30.1608 6.30035 30.1608 6.62826ZM21.2946 8.20369C21.8158 8.72485 22.2985 8.29518 22.3898 8.20369C22.4813 8.1122 22.9111 7.62968 22.3898 7.1084L18.2662 2.98479C17.5718 2.29026 16.4418 2.29038 15.7473 2.98479L11.0829 7.64916C11.7671 8.03632 12.8602 8.05496 13.6298 7.28527L16.5832 4.33194C16.8151 4.10003 17.1912 4.10033 17.4229 4.33194L21.2946 8.20369ZM13.7183 15.8892C13.3086 15.3201 13.0734 14.6475 13.0413 13.9379L11.3827 15.5964L12.6969 16.9106L13.7183 15.8892ZM17.8467 15.7789L14.5743 12.5065C13.9103 13.5981 14.2717 14.8775 14.9427 15.5031L16.1378 16.6982L17.8467 15.7789ZM17.0145 17.5749L18.2549 18.8153C18.5182 19.0852 18.4838 19.5334 18.1163 19.758L12.0653 23.0131C11.6141 23.2558 11.4445 23.8204 11.6872 24.2716C11.93 24.7229 12.4947 24.8925 12.9458 24.6498L20.0765 20.8217C20.8905 20.4125 21.2359 19.1829 20.4379 18.3701L18.7233 16.6556L17.0145 17.5749ZM23.271 9.00004C23.2573 9.01459 22.7011 9.64624 21.8239 9.64624C21.3608 9.64624 20.8793 9.46771 20.4549 9.04332L19.1955 7.78387L15.3632 11.6161L17.5893 13.8422L21.5227 12.0119C22.7739 11.4301 23.3589 10.1852 23.271 9.00004ZM23.8917 5.93771C25.2035 5.93771 26.2668 4.8743 26.2668 3.5626C26.2668 2.25084 25.2035 1.18749 23.8917 1.18749C22.58 1.18749 21.5166 2.25084 21.5166 3.5626C21.5166 4.87436 22.58 5.93771 23.8917 5.93771ZM28.9734 7.30605C28.0828 7.56461 27.4297 8.38958 27.4297 9.36464V10.7165C27.4297 11.2463 26.7996 11.5029 26.4161 11.1363L24.4686 9.18801C24.486 9.62214 24.3788 10.3863 24.0929 11.0037L25.9328 12.8435C26.5531 13.464 27.3422 13.4498 27.8738 13.2296C28.4054 13.0095 28.9734 12.4615 28.9734 11.5841V7.30605Z" fill="black"/>
</svg>
