<svg width="170" height="39" viewBox="0 0 170 39" fill="none" xmlns="http://www.w3.org/2000/svg">
<path d="M99 5H103V26H99V5Z" fill="#FC4517"/>
<path d="M140 17.268V9.38329C140 6.41787 138.66 5 135.587 5H125.552C122.427 5 121 6.37464 121 9.60807V21.4352C121 24.5821 122.384 26 125.865 26H135.37C138.738 26 139.878 24.8156 140 22.1441H125.247V17.268H140ZM125.239 8.84726H135.761V14.0346H125.239V8.84726Z" fill="#FC4517"/>
<path d="M153.875 15.1398V14.7824L163.327 4.81998H157.722L150.194 13.1264H149.302V0H145V26H149.302V17.1968H150.246L158.448 26H164L153.875 15.1398Z" fill="#FC4517"/>
<path d="M166 5H170V26H166V5Z" fill="#FC4517"/>
<path d="M71 5H66.588V29.8559H52.3685V5H48V29.586C48 32.7115 50.0102 34 52.412 34H71V5Z" fill="#FC4517"/>
<path d="M90.9171 5H76V26H80.4501V8.94236H90.55V26H95V8.94236C95 6.76369 93.1645 5 90.9171 5Z" fill="#FC4517"/>
<path d="M111.273 22.0241H117.763V26H111.458C107.897 26 107 24.2562 107 21.222V0H111.282V4.83032H118C117.877 7.58551 116.699 8.80617 113.217 8.80617H111.291V22.0241H111.273Z" fill="#FC4517"/>
<path d="M170 30H76V34H165.53V33.9916C168.76 33.8742 169.878 32.6331 170 30Z" fill="#FC4517"/>
<path d="M34.0102 16.5547V9.06998H39V4.98984H34.0102V0H29.921V4.98984H26.9757C24.4718 4.98984 22.4363 7.0254 22.4363 9.52933V12.4746H16.5457V4.98984H9.06097V0H4.98984V4.98984H0V9.07898H4.98984V12.0242C4.98984 14.5282 7.0254 16.5637 9.52933 16.5637H12.4746V22.4543H4.98984V29.93H0V34.0192H4.98984V39H9.07898V34.0102H12.0242C14.5282 34.0102 16.5637 31.9746 16.5637 29.4707V26.5254H22.4543V34.0102H29.93V39H34.0192V34.0102H39V29.921H34.0102V26.9757C34.0102 24.4718 31.9746 22.4363 29.4707 22.4363H26.5254V16.5457H34.0102V16.5547ZM26.5254 9.06998H29.921V12.4656H26.5254V9.06998ZM12.4656 29.921H9.06998V26.5254H12.4656V29.921ZM12.4656 12.4656H9.06998V9.06998H12.4656V12.4656ZM22.4453 22.4453H16.5547V16.5547H22.4453V22.4453ZM29.921 26.5344V29.93H26.5254V26.5344H29.921Z" fill="#FC4517"/>
</svg>
