<svg width="34" height="34" viewBox="0 0 34 34" fill="none" xmlns="http://www.w3.org/2000/svg">
<path d="M19.832 9.91663H23.1431C23.4897 9.91663 23.6629 9.91663 23.8259 9.95577C23.9705 9.99047 24.1087 10.0477 24.2354 10.1254C24.3784 10.213 24.5009 10.3355 24.7459 10.5805L30.5015 16.3361C30.7465 16.5811 30.869 16.7036 30.9566 16.8466C31.0343 16.9733 31.0915 17.1115 31.1262 17.256C31.1654 17.4191 31.1654 17.5923 31.1654 17.9388V21.9583C31.1654 22.6184 31.1654 22.9484 31.0575 23.2088C30.9137 23.5559 30.638 23.8317 30.2908 23.9755C30.0305 24.0833 29.7004 24.0833 29.0404 24.0833M21.957 24.0833H19.832M19.832 24.0833V10.2C19.832 8.61314 19.832 7.81974 19.5232 7.21365C19.2516 6.68053 18.8181 6.24708 18.285 5.97544C17.6789 5.66663 16.8855 5.66663 15.2987 5.66663H7.36537C5.77855 5.66663 4.98514 5.66663 4.37906 5.97544C3.84593 6.24708 3.41249 6.68053 3.14085 7.21365C2.83203 7.81974 2.83203 8.61314 2.83203 10.2V21.25C2.83203 22.8148 4.10056 24.0833 5.66536 24.0833M19.832 24.0833H14.1654M14.1654 24.0833C14.1654 26.4305 12.2626 28.3333 9.91536 28.3333C7.56815 28.3333 5.66536 26.4305 5.66536 24.0833M14.1654 24.0833C14.1654 21.7361 12.2626 19.8333 9.91536 19.8333C7.56815 19.8333 5.66536 21.7361 5.66536 24.0833M29.0404 24.7916C29.0404 26.7476 27.4547 28.3333 25.4987 28.3333C23.5427 28.3333 21.957 26.7476 21.957 24.7916C21.957 22.8356 23.5427 21.25 25.4987 21.25C27.4547 21.25 29.0404 22.8356 29.0404 24.7916Z" stroke="white" stroke-linecap="round" stroke-linejoin="round"/>
</svg>
