<svg width="16" height="16" viewBox="0 0 16 16" fill="none" xmlns="http://www.w3.org/2000/svg">
<path d="M10.12 1.5H10V1C10 0.867392 9.94732 0.740215 9.85355 0.646447C9.75979 0.552678 9.63261 0.5 9.5 0.5H6.5C6.36739 0.5 6.24021 0.552678 6.14645 0.646447C6.05268 0.740215 6 0.867392 6 1V1.5H5.88C5.3818 1.50132 4.90438 1.69981 4.5521 2.0521C4.19981 2.40438 4.00132 2.8818 4 3.38V13.62C4.00132 14.1182 4.19981 14.5956 4.5521 14.9479C4.90438 15.3002 5.3818 15.4987 5.88 15.5H10.12C10.6182 15.4987 11.0956 15.3002 11.4479 14.9479C11.8002 14.5956 11.9987 14.1182 12 13.62V3.38C11.9987 2.8818 11.8002 2.40438 11.4479 2.0521C11.0956 1.69981 10.6182 1.50132 10.12 1.5ZM11 13.62C11 13.7356 10.9772 13.85 10.933 13.9568C10.8888 14.0635 10.824 14.1605 10.7423 14.2423C10.6605 14.324 10.5635 14.3888 10.4568 14.433C10.35 14.4772 10.2356 14.5 10.12 14.5H5.88C5.76444 14.5 5.65001 14.4772 5.54324 14.433C5.43647 14.3888 5.33946 14.324 5.25775 14.2423C5.17603 14.1605 5.11121 14.0635 5.06699 13.9568C5.02276 13.85 5 13.7356 5 13.62V3.38C5 3.14661 5.09271 2.92278 5.25775 2.75775C5.42278 2.59271 5.64661 2.5 5.88 2.5H10.12C10.3534 2.5 10.5772 2.59271 10.7423 2.75775C10.9073 2.92278 11 3.14661 11 3.38V13.62ZM10.5 13V13.5C10.5 13.6326 10.4473 13.7598 10.3536 13.8536C10.2598 13.9473 10.1326 14 10 14H6C5.86739 14 5.74021 13.9473 5.64645 13.8536C5.55268 13.7598 5.5 13.6326 5.5 13.5V13C5.5 12.8674 5.55268 12.7402 5.64645 12.6464C5.74021 12.5527 5.86739 12.5 6 12.5H10C10.1326 12.5 10.2598 12.5527 10.3536 12.6464C10.4473 12.7402 10.5 12.8674 10.5 13ZM10.5 11V11.5C10.5 11.6326 10.4473 11.7598 10.3536 11.8536C10.2598 11.9473 10.1326 12 10 12H6C5.86739 12 5.74021 11.9473 5.64645 11.8536C5.55268 11.7598 5.5 11.6326 5.5 11.5V11C5.5 10.8674 5.55268 10.7402 5.64645 10.6464C5.74021 10.5527 5.86739 10.5 6 10.5H10C10.1326 10.5 10.2598 10.5527 10.3536 10.6464C10.4473 10.7402 10.5 10.8674 10.5 11ZM10.5 9V9.5C10.5 9.63261 10.4473 9.75979 10.3536 9.85355C10.2598 9.94732 10.1326 10 10 10H6C5.86739 10 5.74021 9.94732 5.64645 9.85355C5.55268 9.75979 5.5 9.63261 5.5 9.5V9C5.5 8.86739 5.55268 8.74021 5.64645 8.64645C5.74021 8.55268 5.86739 8.5 6 8.5H10C10.1326 8.5 10.2598 8.55268 10.3536 8.64645C10.4473 8.74021 10.5 8.86739 10.5 9ZM10.5 7V7.5C10.5 7.63261 10.4473 7.75979 10.3536 7.85355C10.2598 7.94732 10.1326 8 10 8H6C5.86739 8 5.74021 7.94732 5.64645 7.85355C5.55268 7.75979 5.5 7.63261 5.5 7.5V7C5.5 6.86739 5.55268 6.74021 5.64645 6.64645C5.74021 6.55268 5.86739 6.5 6 6.5H10C10.1326 6.5 10.2598 6.55268 10.3536 6.64645C10.4473 6.74021 10.5 6.86739 10.5 7ZM10.5 5V5.5C10.5 5.63261 10.4473 5.75979 10.3536 5.85355C10.2598 5.94732 10.1326 6 10 6H6C5.86739 6 5.74021 5.94732 5.64645 5.85355C5.55268 5.75979 5.5 5.63261 5.5 5.5V5C5.5 4.86739 5.55268 4.74021 5.64645 4.64645C5.74021 4.55268 5.86739 4.5 6 4.5H10C10.1326 4.5 10.2598 4.55268 10.3536 4.64645C10.4473 4.74021 10.5 4.86739 10.5 5Z" fill="white"/>
</svg>
