<svg width="16" height="16" viewBox="0 0 16 16" fill="none" xmlns="http://www.w3.org/2000/svg">
<g clip-path="url(#clip0_551_1504)">
<path d="M9.98857 8.6629L14.2977 4.35374C15.2932 3.35824 15.7253 1.93108 15.4492 0.550584C14.0687 0.27449 12.6416 0.706584 11.6461 1.70208L7.33691 6.01124" stroke="white" stroke-width="0.996094" stroke-miterlimit="10"/>
<path d="M1.9889 0.662957L0.663086 1.98877L14.0113 15.337L15.3371 14.0112L1.9889 0.662957Z" stroke="white" stroke-width="0.996094" stroke-miterlimit="10"/>
<path d="M6.01103 7.33707C5.27881 6.60485 4.09162 6.60485 3.35938 7.33707L8.66269 12.6404C9.39491 11.9082 9.39491 10.721 8.66269 9.98872" stroke="white" stroke-width="0.996094" stroke-miterlimit="10"/>
<path d="M4.68543 8.6629L1.01793 12.3304C0.285707 13.0626 0.285676 14.2498 1.01793 14.9821C1.75018 15.7143 2.93733 15.7143 3.66958 14.9821L7.33708 11.3146" stroke="white" stroke-width="0.996094" stroke-miterlimit="10"/>
<path d="M7.3372 11.3146L4.68555 8.6629" stroke="white" stroke-width="0.996094" stroke-miterlimit="10"/>
<path d="M6.01149 12.6404L3.35986 9.98877" stroke="white" stroke-width="0.996094" stroke-miterlimit="10"/>
<path d="M2.67514 13.9877L2.01221 13.3248" stroke="white" stroke-width="0.996094" stroke-miterlimit="10"/>
<path d="M15.4494 0.550598L9.98877 6.01125L11.3146 7.3371" stroke="white" stroke-width="0.996094" stroke-miterlimit="10"/>
</g>
<defs>
<clipPath id="clip0_551_1504">
<rect width="16" height="16" fill="white"/>
</clipPath>
</defs>
</svg>
