<svg width="10" height="10" viewBox="0 0 10 10" fill="none" xmlns="http://www.w3.org/2000/svg">
<g clip-path="url(#clip0_556_2873)">
<path d="M9.12109 1.17188C9.2829 1.17188 9.41406 1.04071 9.41406 0.878906C9.41406 0.717104 9.2829 0.585938 9.12109 0.585938C8.95929 0.585938 8.82812 0.717104 8.82812 0.878906C8.82812 1.04071 8.95929 1.17188 9.12109 1.17188Z" fill="black"/>
<path d="M9.70703 3.53516C9.86883 3.53516 10 3.40399 10 3.24219C10 3.08039 9.86883 2.94922 9.70703 2.94922C9.54523 2.94922 9.41406 3.08039 9.41406 3.24219C9.41406 3.40399 9.54523 3.53516 9.70703 3.53516Z" fill="black"/>
<path d="M5.01953 10C7.155 10 9.04986 8.61977 9.73479 6.59473C9.77656 6.47143 9.73164 6.33523 9.62492 6.26057C9.5185 6.18646 9.37516 6.19103 9.2733 6.27287C8.64188 6.78184 7.87998 7.05078 7.07031 7.05078C5.13168 7.05078 3.53516 5.47379 3.53516 3.53516C3.53516 2.32295 4.1701 1.19162 5.20121 0.541875C5.31164 0.472344 5.34998 0.337598 5.31365 0.212285C5.2776 0.0869727 5.15 0 5.01953 0C2.27324 0 0 2.25371 0 5C0 7.74629 2.27324 10 5.01953 10Z" fill="black"/>
<path d="M5.60547 2.36328C6.09012 2.36328 6.48438 2.75754 6.48438 3.24219C6.48438 3.40412 6.61541 3.53516 6.77734 3.53516C6.93928 3.53516 7.07031 3.40412 7.07031 3.24219C7.07031 2.75754 7.46457 2.36328 7.94922 2.36328C8.11115 2.36328 8.24219 2.23225 8.24219 2.07031C8.24219 1.90838 8.11115 1.77734 7.94922 1.77734C7.46457 1.77734 7.07031 1.36355 7.07031 0.878906C7.07031 0.716973 6.93928 0.585938 6.77734 0.585938C6.61541 0.585938 6.48438 0.716973 6.48438 0.878906C6.48438 1.36355 6.09012 1.77734 5.60547 1.77734C5.44354 1.77734 5.3125 1.90838 5.3125 2.07031C5.3125 2.23225 5.44354 2.36328 5.60547 2.36328Z" fill="black"/>
</g>
<defs>
<clipPath id="clip0_556_2873">
<rect width="10" height="10" fill="white"/>
</clipPath>
</defs>
</svg>
