<svg width="10" height="10" viewBox="0 0 10 10" fill="none" xmlns="http://www.w3.org/2000/svg">
<g clip-path="url(#clip0_556_2782)">
<path d="M4.99992 0C4.81979 0 4.67383 0.145957 4.67383 0.326094V0.978262C4.67383 1.1584 4.81979 1.30436 4.99992 1.30436C5.18006 1.30436 5.32602 1.1584 5.32602 0.978262V0.326094C5.32602 0.145957 5.18006 0 4.99992 0Z" fill="black"/>
<path d="M4.99992 8.69556C4.81979 8.69556 4.67383 8.84151 4.67383 9.02165V9.67382C4.67383 9.85395 4.81979 9.99991 4.99992 9.99991C5.18006 9.99991 5.32602 9.85395 5.32602 9.67382V9.02165C5.32602 8.84151 5.18006 8.69556 4.99992 8.69556Z" fill="black"/>
<path d="M0.978262 4.67383H0.326094C0.145957 4.67383 0 4.81979 0 4.99992C0 5.18006 0.145957 5.32602 0.326094 5.32602H0.978262C1.1584 5.32602 1.30436 5.18006 1.30436 4.99992C1.30436 4.81979 1.1584 4.67383 0.978262 4.67383Z" fill="black"/>
<path d="M9.67406 4.67383H9.02189C8.84176 4.67383 8.6958 4.81979 8.6958 4.99992C8.6958 5.18006 8.84176 5.32602 9.02189 5.32602H9.67406C9.85408 5.32602 10.0002 5.18006 10.0002 4.99992C10.0002 4.81979 9.85408 4.67383 9.67406 4.67383Z" fill="black"/>
<path d="M1.79925 6.84792C1.70932 6.69189 1.50999 6.63849 1.35386 6.72863L0.789052 7.05472C0.633134 7.14472 0.579637 7.34417 0.669755 7.50011C0.760028 7.65658 0.959423 7.70953 1.11515 7.61941L1.67995 7.29331C1.83587 7.20329 1.88938 7.00386 1.79925 6.84792Z" fill="black"/>
<path d="M9.33002 2.50003C9.2401 2.34421 9.04086 2.29048 8.88463 2.38073L8.31983 2.70683C8.16389 2.79684 8.11039 2.99628 8.20053 3.15222C8.2908 3.30868 8.49018 3.36163 8.64592 3.27151L9.21072 2.94542C9.36666 2.8554 9.42016 2.65597 9.33002 2.50003Z" fill="black"/>
<path d="M3.15219 8.20051C2.99636 8.1103 2.79679 8.16411 2.70679 8.31981L2.3807 8.88461C2.29056 9.04055 2.34408 9.24001 2.5 9.33001C2.65594 9.42022 2.85527 9.3667 2.94539 9.21071L3.27148 8.6459C3.36162 8.48997 3.30812 8.29051 3.15219 8.20051Z" fill="black"/>
<path d="M7.49984 0.669908C7.34402 0.579889 7.14457 0.633502 7.05445 0.789205L6.72836 1.35401C6.63822 1.50995 6.69174 1.7094 6.84765 1.7994C7.00359 1.88962 7.20293 1.83608 7.29304 1.6801L7.61914 1.1153C7.70928 0.959362 7.65578 0.759908 7.49984 0.669908Z" fill="black"/>
<path d="M7.61914 8.8847L7.29305 8.3199C7.20313 8.16386 7.00412 8.11035 6.84766 8.2006C6.69172 8.29062 6.63822 8.49006 6.72836 8.64599L7.05446 9.2108C7.14473 9.36726 7.3441 9.42019 7.49985 9.33009C7.65578 9.24006 7.70928 9.04062 7.61914 8.8847Z" fill="black"/>
<path d="M3.27149 1.35407L2.94539 0.789265C2.85549 0.633328 2.65635 0.579929 2.5 0.669968C2.34406 0.759988 2.29057 0.959421 2.38071 1.11536L2.7068 1.68016C2.79707 1.83663 2.99647 1.88958 3.15219 1.79946C3.30811 1.70944 3.3616 1.51001 3.27149 1.35407Z" fill="black"/>
<path d="M9.21072 7.05465L8.64592 6.72855C8.48998 6.63842 8.29052 6.69215 8.20052 6.84785C8.11039 7.00379 8.1639 7.20324 8.31982 7.29324L8.88463 7.61934C9.04056 7.70955 9.2399 7.65602 9.33002 7.50004C9.42015 7.3441 9.36666 7.14465 9.21072 7.05465Z" fill="black"/>
<path d="M1.67996 2.70681L1.11515 2.38071C0.959119 2.2905 0.75988 2.34419 0.669763 2.50001C0.579627 2.65595 0.633142 2.8554 0.78906 2.9454L1.35386 3.27151C1.5098 3.36173 1.70918 3.30819 1.79926 3.15222C1.88939 2.99626 1.83588 2.79681 1.67996 2.70681Z" fill="black"/>
<path d="M5.00002 1.95654C3.32182 1.95654 1.95654 3.32182 1.95654 5.00002C1.95654 6.67822 3.32182 8.0435 5.00002 8.0435C6.67822 8.0435 8.0435 6.67822 8.0435 5.00002C8.0435 3.32182 6.67822 1.95654 5.00002 1.95654Z" fill="black"/>
</g>
<defs>
<clipPath id="clip0_556_2782">
<rect width="10" height="10" fill="white"/>
</clipPath>
</defs>
</svg>
