<svg width="36" height="36" viewBox="0 0 36 36" fill="none" xmlns="http://www.w3.org/2000/svg">
<g clip-path="url(#clip0_4072_16910)">
<path d="M28.7437 13.0957C28.7317 13.0795 28.7196 13.0632 28.7047 13.0486C28.6899 13.0339 28.6735 13.022 28.6571 13.0101C24.0805 8.53385 16.7513 8.5495 12.1908 13.0093C12.1472 13.0407 12.1342 13.0536 12.1024 13.0968C8.73785 16.4574 7.81652 21.4255 9.60862 25.6731C9.60943 25.675 9.60967 25.6771 9.61048 25.679C9.61145 25.6813 9.61274 25.6833 9.61379 25.6854C10.1998 27.0697 11.0502 28.3182 12.1025 29.3692C12.1344 29.4121 12.1457 29.4239 12.1907 29.4563C16.7528 33.9176 24.082 33.9305 28.6572 29.4555C28.6736 29.4436 28.69 29.4317 28.7047 29.4171C28.7195 29.4025 28.7315 29.3863 28.7435 29.3702C30.9047 27.2123 32.1351 24.3099 32.1351 21.2328C32.1351 18.1711 30.9161 15.2651 28.7437 13.0957ZM29.611 21.6319H31.3191C31.2758 22.8011 31.0436 23.9232 30.6511 24.9693L29.7244 24.5916C29.5178 24.5073 29.282 24.6047 29.1971 24.8084C29.1121 25.0122 29.2103 25.2455 29.4165 25.3295L30.3422 25.7067C29.8538 26.7602 29.1983 27.7225 28.4098 28.5613L27.2056 27.3711C27.048 27.2152 26.7921 27.2152 26.6345 27.3711C26.4768 27.5269 26.4768 27.7796 26.6345 27.9355L27.8387 29.1256C26.9984 29.8973 26.0352 30.5398 24.9816 31.0208L24.5971 30.1076C24.5114 29.904 24.2751 29.8075 24.0691 29.8925C23.8631 29.9771 23.7657 30.2107 23.8514 30.4143L24.2363 31.3286C23.1687 31.7236 22.0224 31.9576 20.8274 32.0007V30.3127C20.8274 30.0922 20.6466 29.9135 20.4235 29.9135C20.2005 29.9135 20.0197 30.0922 20.0197 30.3127V32.0007C18.8368 31.9579 17.7012 31.7285 16.6427 31.3405L17.0248 30.4248C17.1098 30.221 17.0116 29.9877 16.8054 29.9037C16.5989 29.8194 16.363 29.9167 16.2781 30.1205L15.8964 31.0353C14.8306 30.5526 13.8568 29.9048 13.0081 29.1255L14.2123 27.9355C14.3701 27.7796 14.3701 27.5269 14.2123 27.3711C14.0547 27.2152 13.7989 27.2152 13.6413 27.3711L12.4371 28.5612C11.6563 27.7307 11.0062 26.7788 10.5193 25.7375L11.4435 25.3575C11.6494 25.2728 11.7468 25.0393 11.6611 24.8357C11.5754 24.6322 11.3392 24.5356 11.1331 24.6206L10.208 25.001C9.80829 23.9459 9.57155 22.8129 9.52785 21.632H11.2359C11.459 21.632 11.6397 21.4534 11.6397 21.2329C11.6397 21.0124 11.459 20.8338 11.2359 20.8338H9.52785C9.57115 19.6647 9.80328 18.5426 10.1958 17.4965L11.1224 17.8741C11.3289 17.9583 11.5649 17.8606 11.6497 17.6573C11.7347 17.4535 11.6365 17.2201 11.4303 17.1361L10.5048 16.7589C10.9932 15.7056 11.6485 14.7433 12.4371 13.9046L13.6413 15.0946C13.7201 15.1725 13.8235 15.2115 13.9268 15.2115C14.0301 15.2115 14.1336 15.1725 14.2123 15.0946C14.3701 14.9387 14.3701 14.686 14.2123 14.5302L13.0081 13.3402C13.8485 12.5686 14.8117 11.926 15.8653 11.4448L16.2498 12.3582C16.3352 12.561 16.571 12.6583 16.7778 12.5734C16.9837 12.4887 17.0812 12.255 16.9955 12.0516L16.6105 11.1372C17.6782 10.7421 18.8246 10.5082 20.0195 10.4649V12.153C20.0195 12.3734 20.2003 12.5521 20.4234 12.5521C20.6465 12.5521 20.8272 12.3734 20.8272 12.153V10.4649C22.0102 10.5077 23.1456 10.7372 24.2041 11.1251L23.822 12.0409C23.7369 12.2446 23.8352 12.478 24.0414 12.562C24.2481 12.6461 24.4838 12.5487 24.5686 12.3452L24.9504 11.4305C26.0162 11.9131 26.99 12.5608 27.8387 13.3401L26.6345 14.5302C26.4768 14.6861 26.4768 14.9388 26.6345 15.0946C26.7921 15.2505 27.048 15.2504 27.2056 15.0946L28.4098 13.9045C29.1906 14.735 29.8408 15.6868 30.3275 16.7282L29.4035 17.1082C29.1975 17.1929 29.1001 17.4265 29.1858 17.63C29.2504 17.7835 29.4006 17.8759 29.5588 17.8759C29.6105 17.8759 29.6631 17.8661 29.7138 17.8452L30.6389 17.4647C31.0386 18.5198 31.2754 19.6527 31.3191 20.8337H29.611C29.388 20.8337 29.2072 21.0124 29.2072 21.2328C29.2072 21.4533 29.388 21.6319 29.611 21.6319Z" fill="white"/>
<path d="M23.4837 17.4842L21.4563 19.4879C20.6802 18.9787 19.6119 19.053 18.9147 19.742C18.2175 20.4308 18.1423 21.4866 18.6576 22.2539L17.8761 23.0261C17.7184 23.182 17.7184 23.4347 17.8761 23.5905C18.0337 23.7464 18.2896 23.7464 18.4472 23.5905L19.2286 22.8182C20.0047 23.3275 21.073 23.2532 21.7703 22.5641C22.4597 21.8827 22.5452 20.827 22.0271 20.0525L24.0547 18.0486C24.2125 17.8928 24.2125 17.6401 24.0547 17.4843C23.8971 17.3283 23.6413 17.3283 23.4837 17.4842ZM21.1992 21.9996C20.7257 22.4675 19.9592 22.4675 19.4857 21.9997C19.0133 21.5328 19.0133 20.7732 19.4857 20.3063C19.9591 19.8385 20.7257 19.8383 21.1991 20.3063C21.6715 20.7732 21.6715 21.5329 21.1992 21.9996Z" fill="white"/>
<path d="M22.4425 6.60093V3.99113H23.2502C24.3636 3.99113 25.2695 3.09592 25.2695 1.99557C25.2695 0.895211 24.3636 0 23.2502 0H17.5964C16.483 0 15.5771 0.895211 15.5771 1.99557C15.5771 3.09592 16.483 3.99113 17.5964 3.99113H18.4041V6.60285C15.7308 6.96516 13.1811 8.03901 11.0689 9.71697C8.55338 11.7154 6.74326 14.4913 5.94703 17.561H1.24061C0.461268 17.561 -0.172852 18.1877 -0.172852 18.9579C-0.172852 19.7281 0.461268 20.3548 1.24061 20.3548H5.50789C5.47566 20.8884 5.47235 21.4118 5.49844 21.9512H3.25984C2.4805 21.9512 1.84638 22.5779 1.84638 23.3481C1.84638 24.1183 2.4805 24.745 3.25984 24.745H5.90738C6.04081 25.2856 6.20582 25.8197 6.40039 26.3415H5.27907C4.49973 26.3415 3.86561 26.9682 3.86561 27.7384C3.86561 28.5086 4.49973 29.1353 5.27907 29.1353H7.79899C8.15688 29.6923 8.55289 30.2264 8.98258 30.7317H2.45215C1.67281 30.7317 1.03869 31.3584 1.03869 32.1286C1.03869 32.8988 1.67281 33.5255 2.45215 33.5255H12.1412C14.5969 35.1447 17.4578 36 20.4233 36C28.6626 36 35.3656 29.3755 35.3656 21.2328C35.3656 13.7669 29.7302 7.57828 22.4425 6.60093ZM16.3848 1.99557C16.3848 1.33535 16.9283 0.798226 17.5964 0.798226H23.2502C23.9183 0.798226 24.4618 1.33535 24.4618 1.99557C24.4618 2.65578 23.9183 3.1929 23.2502 3.1929C22.5351 3.1929 18.3051 3.1929 17.5964 3.1929C16.9283 3.1929 16.3848 2.65578 16.3848 1.99557ZM19.2118 3.99113H21.6348V6.51432C20.8069 6.44839 20.014 6.45015 19.2118 6.51512V3.99113ZM20.4233 35.2018C17.5784 35.2018 14.8356 34.3699 12.4914 32.7962C12.4245 32.7513 12.3454 32.7273 12.2646 32.7273H2.45215C2.11809 32.7273 1.84638 32.4587 1.84638 32.1286C1.84638 31.7985 2.11809 31.5299 2.45215 31.5299H9.8851C10.0466 31.5299 10.1926 31.4349 10.2562 31.2882C10.3199 31.1415 10.289 30.9715 10.1778 30.8558C9.49506 30.1461 8.8859 29.3627 8.3672 28.5274C8.29378 28.4091 8.16342 28.337 8.02296 28.337H5.27907C4.94501 28.337 4.6733 28.0685 4.6733 27.7384C4.6733 27.4082 4.94501 27.1397 5.27907 27.1397H6.99219C7.27981 27.1397 7.47551 26.85 7.3651 26.5875C7.04994 25.8375 6.80004 25.0545 6.62251 24.2598C6.58156 24.077 6.41759 23.9468 6.22811 23.9468H3.25984C2.92578 23.9468 2.65407 23.6783 2.65407 23.3481C2.65407 23.018 2.92578 22.7494 3.25984 22.7494H5.92821C6.16333 22.7494 6.34886 22.5516 6.33085 22.3197C6.26882 21.5223 6.27673 20.7565 6.34482 19.9906C6.36558 19.7574 6.17949 19.5565 5.94259 19.5565H1.24061C0.906549 19.5565 0.634841 19.2879 0.634841 18.9578C0.634841 18.6276 0.906549 18.3591 1.24061 18.3591H6.26389C6.4516 18.3591 6.61459 18.2312 6.65716 18.0506C8.15446 11.6995 13.8152 7.26386 20.4233 7.26386C28.2171 7.26386 34.5579 13.5303 34.5579 21.2328C34.5579 28.9353 28.2171 35.2018 20.4233 35.2018Z" fill="white"/>
<path d="M2.04815 28.3369C2.38271 28.3369 2.65392 28.0688 2.65392 27.7382C2.65392 27.4076 2.38271 27.1395 2.04815 27.1395C1.71359 27.1395 1.44238 27.4076 1.44238 27.7382C1.44238 28.0688 1.71359 28.3369 2.04815 28.3369Z" fill="white"/>
</g>
<defs>
<clipPath id="clip0_4072_16910">
<rect width="36" height="36" fill="white"/>
</clipPath>
</defs>
</svg>
