<svg width="16" height="16" viewBox="0 0 16 16" fill="none" xmlns="http://www.w3.org/2000/svg">
<g clip-path="url(#clip0_551_1415)">
<path d="M14.4 10.13H13.86V8.52997C13.8472 8.39765 13.7855 8.27484 13.6871 8.18549C13.5886 8.09613 13.4605 8.04663 13.3275 8.04663C13.1946 8.04663 13.0664 8.09613 12.9679 8.18549C12.8695 8.27484 12.8078 8.39765 12.795 8.52997V14.4C12.7952 14.5355 12.7435 14.6659 12.6505 14.7645C12.5575 14.8631 12.4303 14.9223 12.295 14.93H3.71001C3.57471 14.9223 3.44748 14.8631 3.35449 14.7645C3.26149 14.6659 3.20979 14.5355 3.21001 14.4V10.705C3.21001 10.705 3.21001 10.68 3.21001 10.665C3.21001 10.65 3.21001 10.64 3.21001 10.625V8.53497C3.19717 8.40265 3.13552 8.27984 3.03708 8.19049C2.93864 8.10113 2.81046 8.05163 2.67751 8.05163C2.54456 8.05163 2.41638 8.10113 2.31793 8.19049C2.21949 8.27984 2.15785 8.40265 2.14501 8.53497V10.135H1.61501C1.40405 10.133 1.19479 10.1728 0.999263 10.252C0.803734 10.3312 0.6258 10.4483 0.4757 10.5965C0.325601 10.7447 0.206298 10.9212 0.12466 11.1157C0.0430213 11.3103 0.000658014 11.519 8.03476e-06 11.73V14.395C-0.000663172 14.6068 0.0407254 14.8166 0.121773 15.0123C0.202821 15.208 0.321915 15.3856 0.472148 15.5349C0.622381 15.6842 0.800762 15.8022 0.996947 15.882C1.19313 15.9619 1.40321 16.002 1.61501 16H14.4C14.8244 16 15.2313 15.8314 15.5314 15.5313C15.8314 15.2313 16 14.8243 16 14.4V11.73C16 11.3056 15.8314 10.8987 15.5314 10.5986C15.2313 10.2985 14.8244 10.13 14.4 10.13ZM1.08001 14.395V11.73C1.08133 11.5889 1.13827 11.4542 1.23846 11.3549C1.33865 11.2556 1.47398 11.2 1.61501 11.2H2.14001V14.4C2.14112 14.5808 2.17325 14.76 2.23501 14.93H1.61501C1.47312 14.93 1.33704 14.8736 1.23671 14.7733C1.13637 14.6729 1.08001 14.5369 1.08001 14.395ZM14.935 14.395C14.935 14.5369 14.8786 14.6729 14.7783 14.7733C14.678 14.8736 14.5419 14.93 14.4 14.93H13.765C13.8268 14.76 13.8589 14.5808 13.86 14.4V11.2H14.4C14.5419 11.2 14.678 11.2563 14.7783 11.3567C14.8786 11.457 14.935 11.5931 14.935 11.735V14.395Z" fill="white"/>
<path d="M11.7349 13.86C11.8768 13.86 12.0128 13.8036 12.1132 13.7033C12.2135 13.603 12.2699 13.4669 12.2699 13.325V12.795C12.2699 12.0882 11.9891 11.4103 11.4893 10.9106C10.9895 10.4108 10.3117 10.13 9.60486 10.13H6.39986C5.69306 10.13 5.01521 10.4108 4.51542 10.9106C4.01564 11.4103 3.73486 12.0882 3.73486 12.795V13.33C3.7477 13.4623 3.80935 13.5851 3.90779 13.6745C4.00623 13.7638 4.13442 13.8133 4.26736 13.8133C4.40031 13.8133 4.5285 13.7638 4.62694 13.6745C4.72538 13.5851 4.78703 13.4623 4.79986 13.33V12.795C4.79986 12.3707 4.96843 11.9637 5.26849 11.6636C5.56855 11.3636 5.97552 11.195 6.39986 11.195H9.59986C10.0242 11.195 10.4312 11.3636 10.7312 11.6636C11.0313 11.9637 11.1999 12.3707 11.1999 12.795V13.33C11.2012 13.471 11.2581 13.6058 11.3583 13.7051C11.4585 13.8043 11.5938 13.86 11.7349 13.86Z" fill="white"/>
<path d="M6.40014 12.26C6.32587 12.2528 6.25092 12.2612 6.1801 12.2847C6.10928 12.3082 6.04415 12.3462 5.9889 12.3964C5.93365 12.4465 5.88951 12.5077 5.85929 12.5759C5.82908 12.6441 5.81348 12.7179 5.81348 12.7925C5.81348 12.8671 5.82908 12.9409 5.85929 13.0091C5.88951 13.0774 5.93365 13.1385 5.9889 13.1887C6.04415 13.2388 6.10928 13.2768 6.1801 13.3003C6.25092 13.3238 6.32587 13.3322 6.40014 13.325H9.60514C9.73746 13.3122 9.86027 13.2505 9.94962 13.1521C10.039 13.0536 10.0885 12.9255 10.0885 12.7925C10.0885 12.6596 10.039 12.5314 9.94962 12.4329C9.86027 12.3345 9.73746 12.2728 9.60514 12.26H6.40014Z" fill="white"/>
<path d="M2.6702 6.935H4.80519V8C4.81803 8.13233 4.87968 8.25513 4.97812 8.34449C5.07656 8.43384 5.20475 8.48334 5.3377 8.48334C5.47064 8.48334 5.59883 8.43384 5.69727 8.34449C5.79571 8.25513 5.85736 8.13233 5.87019 8V6.935H10.1352V8C10.148 8.13233 10.2097 8.25513 10.3081 8.34449C10.4066 8.43384 10.5347 8.48334 10.6677 8.48334C10.8006 8.48334 10.9288 8.43384 11.0273 8.34449C11.1257 8.25513 11.1874 8.13233 11.2002 8V5.335C11.1874 5.20267 11.1257 5.07987 11.0273 4.99051C10.9288 4.90116 10.8006 4.85166 10.6677 4.85166C10.5347 4.85166 10.4066 4.90116 10.3081 4.99051C10.2097 5.07987 10.148 5.20267 10.1352 5.335V5.87H5.87019V5.335C5.85736 5.20267 5.79571 5.07987 5.69727 4.99051C5.59883 4.90116 5.47064 4.85166 5.3377 4.85166C5.20475 4.85166 5.07656 4.90116 4.97812 4.99051C4.87968 5.07987 4.81803 5.20267 4.80519 5.335V5.87H2.6702C2.59994 5.87 2.53037 5.85616 2.46546 5.82928C2.40055 5.80239 2.34157 5.76298 2.29189 5.7133C2.24221 5.66362 2.20281 5.60464 2.17592 5.53974C2.14903 5.47483 2.1352 5.40526 2.1352 5.335V3.205H13.8602V5.335C13.8602 5.40526 13.8464 5.47483 13.8195 5.53974C13.7926 5.60464 13.7532 5.66362 13.7035 5.7133C13.6538 5.76298 13.5948 5.80239 13.5299 5.82928C13.465 5.85616 13.3955 5.87 13.3252 5.87H12.7952C12.6629 5.88284 12.5401 5.94448 12.4507 6.04293C12.3614 6.14137 12.3119 6.26955 12.3119 6.4025C12.3119 6.53545 12.3614 6.66363 12.4507 6.76207C12.5401 6.86052 12.6629 6.92216 12.7952 6.935H13.3302C13.7545 6.935 14.1615 6.76643 14.4616 6.46637C14.7616 6.16631 14.9302 5.75935 14.9302 5.335V2.67C14.9302 2.52811 14.8738 2.39203 14.7735 2.2917C14.6732 2.19137 14.5371 2.135 14.3952 2.135H12.7952V1.075C12.7965 0.934303 12.7699 0.794739 12.717 0.664371C12.6641 0.534002 12.5858 0.415415 12.4868 0.315458C12.3878 0.215502 12.2699 0.13616 12.1401 0.0820142C12.0102 0.0278687 11.8709 -6.20172e-06 11.7302 1.03496e-09L10.6652 1.03496e-09C10.5245 -6.20172e-06 10.3852 0.0278687 10.2553 0.0820142C10.1254 0.13616 10.0076 0.215502 9.90857 0.315458C9.80954 0.415415 9.7313 0.534002 9.67837 0.664371C9.62545 0.794739 9.59887 0.934303 9.60019 1.075V2.14H6.4002V1.075C6.40152 0.934303 6.37494 0.794739 6.32201 0.664371C6.26909 0.534002 6.19085 0.415415 6.09182 0.315458C5.9928 0.215502 5.87494 0.13616 5.74508 0.0820142C5.61521 0.0278687 5.4759 -6.20172e-06 5.3352 1.03496e-09L4.2702 1.03496e-09C4.12949 -6.20172e-06 3.99018 0.0278687 3.86031 0.0820142C3.73045 0.13616 3.61259 0.215502 3.51357 0.315458C3.41454 0.415415 3.3363 0.534002 3.28338 0.664371C3.23045 0.794739 3.20387 0.934303 3.20519 1.075V2.14H1.6052C1.46503 2.1413 1.33098 2.19756 1.23187 2.29667C1.13276 2.39579 1.0765 2.52984 1.0752 2.67V5.335C1.07519 5.75848 1.24308 6.16469 1.54206 6.46461C1.84103 6.76452 2.24672 6.93368 2.6702 6.935ZM10.6702 1.075H11.7352V2.14H10.6652L10.6702 1.075ZM4.2752 1.075H5.3402V2.14H4.2702L4.2752 1.075Z" fill="white"/>
</g>
<defs>
<clipPath id="clip0_551_1415">
<rect width="16" height="16" fill="white"/>
</clipPath>
</defs>
</svg>
