<svg width="34" height="34" viewBox="0 0 34 34" fill="none" xmlns="http://www.w3.org/2000/svg">
<g clip-path="url(#clip0_110_6140)">
<path d="M32.5017 24.994C32.2819 24.9107 32.0336 24.9707 31.8767 25.1464C31.3475 25.7396 30.6623 26.1511 29.8951 26.3375C28.4535 26.6616 26.9478 26.9381 25.419 27.1586C25.1402 27.1989 24.9333 27.438 24.9333 27.7196V31.7333C24.9333 32.6706 25.6961 33.4333 26.6333 33.4333H31.1667C32.104 33.4333 32.8667 32.6706 32.8667 31.7333V25.5238C32.8666 25.2886 32.7216 25.0778 32.5017 24.994ZM31.7333 31.7333C31.7333 32.0456 31.4795 32.3 31.1667 32.3H26.6333C26.3206 32.3 26.0667 32.0456 26.0667 31.7333V28.2087C27.459 27.9962 28.8298 27.7389 30.1484 27.442C30.1513 27.4414 30.1541 27.4408 30.1569 27.4402C30.723 27.3036 31.2546 27.0725 31.7334 26.7569V31.7333H31.7333Z" fill="white"/>
<path d="M8.58102 27.1586C7.05275 26.9382 5.54652 26.6616 4.10491 26.3375C3.33765 26.1511 2.65254 25.7396 2.12328 25.1464C1.9663 24.9707 1.71754 24.9106 1.49826 24.994C1.27839 25.0778 1.13336 25.2886 1.13336 25.5238V31.7333C1.13336 32.6706 1.8961 33.4333 2.83336 33.4333H7.36672C8.30398 33.4333 9.06672 32.6706 9.06672 31.7333V27.7196C9.06665 27.438 8.85986 27.1989 8.58102 27.1586ZM7.93336 31.7333C7.93336 32.0456 7.67949 32.3 7.36672 32.3H2.83336C2.52059 32.3 2.26672 32.0456 2.26672 31.7333V26.7569C2.74557 27.0725 3.27709 27.3037 3.8432 27.4408C3.84606 27.4414 3.84885 27.442 3.8517 27.4426C5.17033 27.7389 6.54109 27.9962 7.93343 28.2087L7.93336 31.7333Z" fill="white"/>
<path d="M24.1684 27.8528L23.5864 24.944C23.3223 23.6243 22.1539 22.6666 20.808 22.6666H13.1914C11.8456 22.6666 10.6771 23.6242 10.4136 24.9446L9.83165 27.8533C9.80051 28.0091 9.83617 28.1706 9.92967 28.2987C10.0232 28.4273 10.1665 28.51 10.3241 28.5276C12.5392 28.7752 14.7696 28.8987 16.9999 28.8987C19.2303 28.8987 21.4607 28.7746 23.6758 28.527C23.8333 28.5094 23.9767 28.4267 24.0702 28.2981C24.1638 28.1701 24.1995 28.0086 24.1684 27.8528ZM11.0648 27.4663L11.5244 25.1668C11.683 24.3746 12.384 23.8001 13.1915 23.8001H20.8086C21.6161 23.8001 22.3171 24.3747 22.4752 25.1663L22.9353 27.4664C18.9941 27.8647 15.0065 27.8647 11.0648 27.4663Z" fill="white"/>
<path d="M30.2186 14.6229L27.6743 14.0965C20.5745 12.6707 13.392 12.6707 6.32287 14.0971L3.78137 14.6229C1.5901 15.0761 0 17.0295 0 19.2666V22.5595C0 24.8868 1.5804 26.8939 3.85163 27.4425C8.1515 28.4093 12.5738 28.8932 16.9977 28.8932C21.4234 28.8932 25.8508 28.4087 30.1569 27.4403C32.4196 26.894 34 24.8869 34 22.5596V19.2667C34 17.0295 32.4099 15.0761 30.2186 14.6229ZM32.8666 22.5596C32.8666 24.3616 31.6432 25.916 29.8995 26.337C21.4608 28.2347 12.5392 28.2347 4.10882 26.3387C2.35669 25.916 1.13322 24.3616 1.13322 22.5596V19.2667C1.13322 17.5639 2.34361 16.0781 4.01074 15.733L6.54938 15.2077C10.0089 14.5096 13.4967 14.1605 16.9885 14.1605C20.4792 14.1605 23.9744 14.509 27.4475 15.2071L29.989 15.733C31.6561 16.0775 32.8665 17.5639 32.8665 19.2667V22.5596H32.8666Z" fill="white"/>
<path d="M32.2598 15.6938L28.5799 6.46398C27.9752 4.94699 26.5285 3.96671 24.8954 3.96671H9.10463C7.4715 3.96671 6.02478 4.94706 5.41962 6.46345L1.74024 15.6933C1.64674 15.9284 1.71986 16.197 1.92047 16.3517C2.12049 16.5065 2.39933 16.5098 2.60273 16.3597C3.02321 16.0503 3.49696 15.8389 4.01087 15.7324L6.54952 15.2077C13.468 13.812 20.5003 13.8114 27.4476 15.2071L29.9891 15.7324C30.5031 15.8389 30.9769 16.0497 31.3973 16.3596C31.497 16.4333 31.6154 16.4701 31.7333 16.4701C31.8557 16.4701 31.9775 16.431 32.0795 16.3523C32.2801 16.1976 32.3533 15.929 32.2598 15.6938ZM30.2186 14.6228L27.6743 14.0964C20.5745 12.6707 13.392 12.6707 6.32287 14.097L3.78137 14.6229C3.63236 14.6535 3.48613 14.6909 3.34276 14.7351L6.47249 6.884C6.90486 5.80051 7.93787 5.10013 9.10463 5.10013H24.8954C26.0621 5.10013 27.0951 5.80051 27.527 6.8846L30.6572 14.7357C30.5139 14.6914 30.3676 14.654 30.2186 14.6228Z" fill="white"/>
<path d="M28.4263 12.1981L26.4746 7.30384C26.2157 6.65385 25.5958 6.23337 24.8954 6.23337H9.10463C8.40478 6.23337 7.78488 6.65385 7.52536 7.30324L5.57434 12.1975C5.49725 12.3908 5.53184 12.61 5.66499 12.7699C5.7976 12.9296 6.00784 13.005 6.21125 12.9631C13.277 11.5526 20.6765 11.5515 27.7888 12.9637C27.8256 12.9711 27.8624 12.9745 27.8993 12.9745C28.0659 12.9745 28.2262 12.9014 28.3356 12.7705C28.4682 12.6106 28.5034 12.3908 28.4263 12.1981ZM16.9881 10.7667C13.6442 10.7667 10.293 11.0664 7.00972 11.658L8.57823 7.72313C8.66436 7.50664 8.87122 7.36672 9.10463 7.36672H24.8954C25.1289 7.36672 25.3351 7.50671 25.4218 7.72372L26.9914 11.6598C23.6901 11.067 20.3303 10.7667 16.9881 10.7667Z" fill="white"/>
<path d="M8.77763 16.9552L4.78038 16.4419C3.95926 16.3557 3.21697 16.9076 3.05488 17.718L2.86449 18.6705C2.69734 19.508 3.21525 20.3269 4.03072 20.5303L7.50549 21.4863C7.63299 21.518 7.76334 21.5339 7.8931 21.5339C8.0637 21.5339 8.23423 21.5067 8.39859 21.4523L9.1086 21.2154C9.76138 20.9978 10.2006 20.3886 10.2006 19.7001V18.543C10.2006 17.7185 9.58175 17.0351 8.77763 16.9552ZM9.06663 19.7001C9.06663 19.9002 8.93913 20.077 8.74928 20.1404L8.03926 20.3773C7.95539 20.405 7.86588 20.4084 7.79276 20.3903L4.31799 19.4343C4.07713 19.3742 3.92699 19.1362 3.97573 18.8926L4.16612 17.94C4.21034 17.719 4.40239 17.5654 4.61038 17.5654C4.62452 17.5654 4.63813 17.566 4.65115 17.5676L8.64901 18.081C8.88701 18.1048 9.06663 18.3032 9.06663 18.5429V19.7001Z" fill="white"/>
<path d="M31.1366 18.6711L30.9462 17.718C30.7841 16.9082 30.0412 16.3603 29.2049 16.4435L25.2387 16.953C24.4188 17.0346 23.8 17.718 23.8 18.5425V19.6996C23.8 20.3881 24.2391 20.9973 24.8925 21.2149L25.6031 21.4518C25.7652 21.5061 25.9335 21.5334 26.1046 21.5334C26.2378 21.5334 26.3732 21.517 26.5086 21.4835L29.9574 20.5344C30.7864 20.3269 31.3044 19.5086 31.1366 18.6711ZM29.6695 19.4378L26.2202 20.3869C26.1335 20.4084 26.0446 20.4045 25.9607 20.3767L25.2507 20.1398C25.0608 20.0764 24.9333 19.8996 24.9333 19.6996V18.5424C24.9333 18.3027 25.113 18.1044 25.3674 18.0783L29.3336 17.5688C29.3494 17.5671 29.3647 17.5666 29.3806 17.5666C29.5998 17.5666 29.7908 17.7202 29.8345 17.9401L30.0248 18.8932C30.0736 19.1369 29.9234 19.3744 29.6695 19.4378Z" fill="white"/>
<path d="M6.7405 24.6795L5.60714 22.4128C5.52613 22.2507 5.37253 22.1374 5.1935 22.1074L0.660145 21.352C0.495789 21.3231 0.327516 21.3707 0.200547 21.4784C0.0731133 21.586 0 21.7441 0 21.9107V22.5596C0 23.1308 0.0963555 23.6923 0.285613 24.2296C0.354211 24.4245 0.523613 24.5662 0.727613 24.6002L6.14099 25.4927C6.1716 25.4978 6.20274 25.5001 6.23336 25.5001C6.41126 25.5001 6.58186 25.4162 6.6895 25.2694C6.81587 25.0976 6.83573 24.8699 6.7405 24.6795ZM1.2586 23.5387C1.17698 23.2265 1.13508 22.9052 1.13336 22.58L4.72261 23.1778L5.23036 24.1933L1.2586 23.5387Z" fill="white"/>
<path d="M33.7994 21.4784C33.6719 21.3707 33.5036 21.3236 33.3398 21.352L28.8064 22.1074C28.6279 22.1374 28.4738 22.2507 28.3928 22.4128L27.2594 24.6794C27.1642 24.8704 27.1841 25.0982 27.3104 25.2693C27.4187 25.4161 27.5887 25.4999 27.7666 25.4999C27.7972 25.4999 27.8278 25.4977 27.8583 25.4932L33.2717 24.6007C33.4757 24.5673 33.6451 24.425 33.7143 24.23C33.9036 23.6928 33.9999 23.1313 33.9999 22.5601V21.9112C34 21.7447 33.9269 21.586 33.7994 21.4784ZM32.742 23.5394L28.7702 24.1939L29.278 23.1784L32.8672 22.5805C32.8655 22.9052 32.8236 23.2265 32.742 23.5394Z" fill="white"/>
<path d="M11.02 2.89337C10.74 2.75399 10.3995 2.86674 10.2595 3.14665L9.69286 4.28C9.55288 4.5599 9.66623 4.9005 9.94613 5.04049C10.0277 5.08073 10.1144 5.09999 10.1994 5.09999C10.4074 5.09999 10.6074 4.9855 10.7066 4.78721L11.2732 3.65386C11.4132 3.37389 11.2999 3.03336 11.02 2.89337Z" fill="white"/>
<path d="M24.3071 4.27949L23.7405 3.14613C23.6 2.86563 23.2594 2.75287 22.98 2.89286C22.7001 3.03284 22.5867 3.37337 22.7267 3.65334L23.2934 4.7867C23.3925 4.98558 23.5926 5.10007 23.8005 5.10007C23.8855 5.10007 23.9722 5.08081 24.0538 5.03997C24.3338 4.89999 24.4471 4.55939 24.3071 4.27949Z" fill="white"/>
<path d="M17 27.7666C16.6872 27.7666 16.4333 28.0205 16.4333 28.3333V29.4666C16.4333 29.7794 16.6872 30.0333 17 30.0333C17.3128 30.0333 17.5666 29.7794 17.5666 29.4666V28.3333C17.5666 28.0205 17.3128 27.7666 17 27.7666Z" fill="white"/>
<path d="M19.8334 27.6992C19.5206 27.6992 19.2667 27.9531 19.2667 28.2659V29.4667C19.2667 29.7794 19.5206 30.0333 19.8334 30.0333C20.1461 30.0333 20.4 29.7794 20.4 29.4667V28.2659C20.4 27.9531 20.1461 27.6992 19.8334 27.6992Z" fill="white"/>
<path d="M22.6667 27.4952C22.3539 27.4952 22.1 27.7491 22.1 28.0619V29.4666C22.1 29.7794 22.3539 30.0333 22.6667 30.0333C22.9794 30.0333 23.2333 29.7794 23.2333 29.4666V28.0619C23.2334 27.7491 22.9795 27.4952 22.6667 27.4952Z" fill="white"/>
<path d="M14.1666 27.6981C13.8539 27.6981 13.6 27.952 13.6 28.2648V29.4667C13.6 29.7794 13.8539 30.0333 14.1666 30.0333C14.4794 30.0333 14.7333 29.7794 14.7333 29.4667V28.2648C14.7334 27.952 14.4795 27.6981 14.1666 27.6981Z" fill="white"/>
<path d="M11.3334 27.4964C11.0206 27.4964 10.7667 27.7502 10.7667 28.063V29.4666C10.7667 29.7794 11.0206 30.0333 11.3334 30.0333C11.6461 30.0333 11.9 29.7794 11.9 29.4666V28.063C11.9 27.7502 11.6461 27.4964 11.3334 27.4964Z" fill="white"/>
<path d="M17 0.56665C16.6872 0.56665 16.4333 0.820521 16.4333 1.13329V4.53329C16.4333 4.84607 16.6872 5.09994 17 5.09994C17.3128 5.09994 17.5666 4.84607 17.5666 4.53329V1.13329C17.5666 0.820521 17.3128 0.56665 17 0.56665Z" fill="white"/>
<path d="M32.3 11.3333H30.137C29.9494 11.3333 29.7738 11.4268 29.6678 11.5821C29.5624 11.7374 29.5409 11.9351 29.6106 12.1097L30.5144 14.3763C30.6005 14.5917 30.8091 14.7333 31.0408 14.7333H32.3C33.2373 14.7333 34 13.9706 34 13.0333C34 12.0961 33.2373 11.3333 32.3 11.3333ZM32.3 13.6H31.4251L30.9729 12.4666H32.3C32.6128 12.4666 32.8667 12.721 32.8667 13.0333C32.8667 13.3456 32.6128 13.6 32.3 13.6Z" fill="white"/>
<path d="M4.33214 11.5821C4.22676 11.4268 4.05105 11.3333 3.86292 11.3333H1.7C0.762742 11.3333 0 12.0961 0 13.0333C0 13.9706 0.762742 14.7333 1.7 14.7333H2.95913C3.19148 14.7333 3.4 14.5917 3.48553 14.3763L4.38939 12.1097C4.45911 11.9357 4.4376 11.7374 4.33214 11.5821ZM2.5749 13.6H1.7C1.38723 13.6 1.13336 13.3456 1.13336 13.0333C1.13336 12.7211 1.38723 12.4667 1.7 12.4667H3.0266L2.5749 13.6Z" fill="white"/>
<path d="M22.6496 15.8814C22.3187 15.5119 21.8444 15.3 21.3485 15.3H12.6513C12.1549 15.3 11.6812 15.5119 11.3502 15.8814C11.0192 16.2509 10.8606 16.7461 10.9156 17.2391L11.2199 19.9795C11.3185 20.8652 12.0642 21.5333 12.9556 21.5333H21.0442C21.935 21.5333 22.6813 20.8652 22.7799 19.9795L23.0842 17.2391C23.1392 16.7461 22.9806 16.2509 22.6496 15.8814ZM21.9572 17.1145L21.6529 19.8549C21.6183 20.1654 21.3566 20.4 21.0438 20.4H12.9557C12.6429 20.4 12.3811 20.1654 12.3466 19.8543L12.0423 17.1139C12.0224 16.9382 12.0769 16.7688 12.1947 16.6373C12.3126 16.5058 12.4746 16.4333 12.6514 16.4333H21.3487C21.5254 16.4333 21.6869 16.5064 21.8048 16.6379C21.9226 16.7694 21.9765 16.9388 21.9572 17.1145Z" fill="white"/>
<path d="M13.6 15.3C13.2872 15.3 13.0334 15.5539 13.0334 15.8666V20.9666C13.0334 21.2794 13.2872 21.5333 13.6 21.5333C13.9128 21.5333 14.1666 21.2794 14.1666 20.9666V15.8666C14.1666 15.5539 13.9128 15.3 13.6 15.3Z" fill="white"/>
<path d="M15.8666 15.3C15.5539 15.3 15.3 15.5539 15.3 15.8666V20.9666C15.3 21.2794 15.5539 21.5333 15.8666 21.5333C16.1794 21.5333 16.4333 21.2794 16.4333 20.9666V15.8666C16.4333 15.5539 16.1795 15.3 15.8666 15.3Z" fill="white"/>
<path d="M18.1334 15.3C17.8206 15.3 17.5667 15.5539 17.5667 15.8666V20.9666C17.5667 21.2794 17.8206 21.5333 18.1334 21.5333C18.4461 21.5333 18.7 21.2794 18.7 20.9666V15.8666C18.7 15.5539 18.4461 15.3 18.1334 15.3Z" fill="white"/>
<path d="M20.4 15.3C20.0872 15.3 19.8333 15.5539 19.8333 15.8666V20.9666C19.8333 21.2794 20.0872 21.5333 20.4 21.5333C20.7128 21.5333 20.9666 21.2794 20.9666 20.9666V15.8666C20.9666 15.5539 20.7128 15.3 20.4 15.3Z" fill="white"/>
<path d="M32.7715 28.0189C32.5981 27.7582 32.2456 27.6874 31.9855 27.8619L30.1354 29.0955C29.3851 29.5959 28.415 29.5959 27.6647 29.0955L25.8146 27.8619C25.5545 27.6885 25.202 27.7587 25.0286 28.0189C24.8546 28.2795 24.9255 28.6315 25.1856 28.8048L27.0357 30.0385C27.6024 30.4159 28.2512 30.6046 28.9001 30.6046C29.5489 30.6046 30.1977 30.4159 30.7644 30.0385L32.6146 28.8048C32.8746 28.6314 32.9449 28.2789 32.7715 28.0189Z" fill="white"/>
<path d="M8.9715 28.0194C8.79811 27.7588 8.44562 27.6879 8.18551 27.8624L6.34161 29.0915C5.58796 29.5948 4.61325 29.5942 3.85848 29.0915L2.01458 27.8624C1.75393 27.689 1.40198 27.7593 1.22859 28.0194C1.05461 28.28 1.12546 28.632 1.38558 28.8054L3.22948 30.0345C3.79785 30.413 4.44896 30.6023 5.10008 30.6023C5.75119 30.6023 6.4023 30.413 6.97067 30.0345L8.81464 28.8054C9.07462 28.632 9.14488 28.2795 8.9715 28.0194Z" fill="white"/>
</g>
<defs>
<clipPath id="clip0_110_6140">
<rect width="34" height="34" fill="white"/>
</clipPath>
</defs>
</svg>
