<svg width="30" height="30" viewBox="0 0 30 30" fill="none" xmlns="http://www.w3.org/2000/svg">
<g clip-path="url(#clip0_551_730)">
<path d="M29.4141 17.7475H26.7815C26.2798 17.7475 25.7938 17.9558 25.448 18.3192L21.6211 22.3413V14.6477H21.6797C22.649 14.6477 23.4375 13.8592 23.4375 12.8899C23.4375 11.9206 22.649 11.1321 21.6797 11.1321H21.6211V7.96874C21.6211 7.6451 21.3588 7.3828 21.0352 7.3828C20.7115 7.3828 20.4492 7.6451 20.4492 7.96874V11.1321H16.954L14.575 10.0044C14.5599 9.99526 14.5445 9.98633 14.5285 9.97832L14.274 9.85289C15.8496 9.64301 17.0691 8.29146 17.0691 6.65954C17.0691 4.8825 15.6235 3.43689 13.8464 3.43689C12.0696 3.43689 10.6238 4.8825 10.6238 6.65954C10.6238 7.44025 10.903 8.15665 11.3665 8.71489C11.0046 8.69933 10.6453 8.74671 10.3036 8.85199L9.40681 8.40957C7.85408 7.64396 5.96786 8.28414 5.20226 9.83687L3.17665 13.9444C2.88414 14.5372 2.84203 15.2076 3.0574 15.8324C3.27301 16.4573 3.71979 16.9592 4.31534 17.2458L4.95049 17.5511C4.61998 18.6863 4.74907 19.9138 5.33432 20.9719L5.28259 21.0237C5.28259 21.0239 5.28214 21.0241 5.28214 21.0241C5.28191 21.0244 5.28168 21.0246 5.28145 21.0248L2.46185 23.8444C2.45842 23.8478 2.45476 23.8506 2.45132 23.8538L1.03043 25.2747C0.801773 25.5036 0.801773 25.8746 1.03043 26.1035L3.72345 28.7963C3.73466 28.8077 3.74657 28.818 3.7587 28.8281H0.585938C0.262299 28.8281 0 29.0904 0 29.414C0 29.7376 0.262299 29.9999 0.585938 29.9999H6.21094C6.77147 29.9999 7.30019 29.7832 7.69958 29.3897L11.9646 25.1863C12.1122 25.041 12.3074 24.9609 12.5146 24.9609H18.6257C19.9731 24.9609 21.2787 24.4011 22.2075 23.4249L26.2969 19.1269C26.4226 18.9949 26.5993 18.9191 26.7815 18.9191H28.8281V29.414C28.8281 29.7376 29.0907 29.9999 29.4141 29.9999C29.7377 29.9999 30 29.7376 30 29.414V18.3334C30 18.0098 29.7377 17.7475 29.4141 17.7475ZM22.2656 12.8899C22.2656 13.2129 22.0029 13.4759 21.6797 13.4759H17.0281L17.2911 12.304H21.6797C22.0026 12.304 22.2656 12.5667 22.2656 12.8899ZM13.8464 4.60876C14.9773 4.60876 15.8972 5.52864 15.8972 6.65954C15.8972 7.79021 14.9773 8.71032 13.8464 8.71032C12.7158 8.71032 11.7957 7.79021 11.7957 6.65954C11.7957 5.52864 12.7158 4.60876 13.8464 4.60876ZM12.0964 10.0857L13.9572 11.0033C13.9767 11.0156 13.997 11.0273 14.0183 11.0374L16.1478 12.0467L15.8846 13.2191L13.5164 12.0962C13.5127 12.0946 13.5088 12.0932 13.5052 12.0916C13.4997 12.0888 13.4946 12.0854 13.4892 12.0829L12.1916 11.4466C11.9009 11.3042 11.5501 11.4244 11.4075 11.7148C11.2651 12.0055 11.385 12.3564 11.6757 12.499L12.4459 12.8764L10.9364 15.9375H7.0166L9.46129 10.9801C9.94125 10.0069 11.1232 9.6057 12.0964 10.0857ZM7.35191 22.2656L6.52336 21.4368C6.61926 21.3226 6.6655 21.1786 6.65932 21.0351H7.83165C7.82776 21.4943 7.65862 21.9271 7.35191 22.2656ZM8.37753 18.8269C8.0928 19.1116 7.91176 19.4723 7.85294 19.8632H6.12053C5.87128 19.1297 5.88661 18.3325 6.16837 17.6049C6.18919 17.5763 6.20842 17.5465 6.22421 17.5136C6.24733 17.4655 6.26266 17.4158 6.27205 17.3659C6.31348 17.2792 6.3588 17.1933 6.40846 17.1093H10.9854L10.3995 18.2812H9.69475C9.19716 18.2812 8.72932 18.4751 8.37753 18.8269ZM12.168 20.1514L13.3399 19.8365V21.4453H12.168V20.1514ZM13.3399 18.6229L11.9792 18.9887C11.8783 18.8138 11.741 18.6628 11.5778 18.5456L12.2958 17.1093H12.5146C12.9696 17.1093 13.3399 17.4797 13.3399 17.9345V18.6229ZM8.8884 9.46059L9.08318 9.55672C8.8131 9.80849 8.58307 10.1118 8.41026 10.4619L7.89116 11.5146L6.08917 10.6876L6.25328 10.3553C6.73302 9.38208 7.91519 8.98063 8.8884 9.46059ZM4.16519 15.4502C4.05258 15.1236 4.07455 14.7727 4.22745 14.4626L5.57076 11.7391L7.37251 12.5661L5.55862 16.2442L5.42084 16.4769L4.82323 16.1895C4.51172 16.0398 4.27803 15.777 4.16519 15.4502ZM5.69641 22.2672L6.52496 23.0957L4.52339 25.0973L3.69484 24.2688L5.69641 22.2672ZM2.27348 25.689L2.8656 25.0968L3.72322 25.9545C3.99216 26.2234 4.14024 26.5807 4.14024 26.9611C4.14024 27.1357 4.10889 27.3058 4.04892 27.4646L2.27348 25.689ZM6.87698 28.555C6.69823 28.731 6.46156 28.8281 6.21094 28.8281H4.51675C4.52866 28.8178 4.54056 28.8075 4.552 28.7963C5.04227 28.306 5.31212 27.6544 5.31212 26.9611C5.31212 26.6663 5.26291 26.3793 5.1693 26.109L8.11615 23.1619C8.68858 22.5892 9.00398 21.8282 9.00398 21.0184V20.1441C9.00398 19.9596 9.07585 19.7861 9.20631 19.6557C9.33678 19.525 9.51027 19.4533 9.69475 19.4533H10.7572C10.8888 19.4533 10.9962 19.5607 10.9962 19.6925V24.3752C10.9962 24.4127 11.0001 24.4493 11.0067 24.4851L6.87698 28.555ZM12.5146 23.789H12.168V22.6171H13.3788C14.1428 22.6171 14.7945 23.107 15.0362 23.789H12.5146ZM16.2495 23.789C16.0547 22.8323 15.3921 22.0438 14.5118 21.6732V17.9345C14.5118 16.8333 13.6157 15.9375 12.5146 15.9375H12.2429L13.5013 13.3859L16.0437 14.5912C16.0641 14.601 16.0851 14.6088 16.1064 14.6161C16.1101 14.6173 16.1137 14.6182 16.1172 14.6193C16.1259 14.6221 16.1343 14.6251 16.143 14.6274C16.1469 14.6285 16.151 14.629 16.1549 14.6299C16.1593 14.631 16.1634 14.6324 16.1678 14.6335C16.1776 14.6356 16.1877 14.6367 16.1975 14.6383C16.2067 14.6399 16.2156 14.6418 16.2247 14.6429C16.2488 14.6459 16.2728 14.6477 16.2966 14.6477H16.2991H20.4492V23.3173C19.8949 23.6229 19.2666 23.789 18.6257 23.789H16.2495Z" fill="black"/>
<path d="M21.0352 6.04522C21.1892 6.04522 21.3405 5.98251 21.4494 5.87356C21.5584 5.76393 21.6211 5.61333 21.6211 5.45929C21.6211 5.30502 21.5584 5.15396 21.4494 5.04501C21.3405 4.93538 21.1892 4.87335 21.0352 4.87335C20.8811 4.87335 20.7298 4.93538 20.6209 5.04501C20.5119 5.15396 20.4492 5.30502 20.4492 5.45929C20.4492 5.61333 20.5119 5.76393 20.6209 5.87356C20.7298 5.98251 20.8811 6.04522 21.0352 6.04522Z" fill="black"/>
<path d="M26.4844 7.03124C28.4228 7.03124 30 5.45401 30 3.51562C30 1.57699 28.4228 0 26.4844 0C24.5457 0 22.9688 1.57699 22.9688 3.51562C22.9688 5.45401 24.5457 7.03124 26.4844 7.03124ZM26.4844 1.17187C27.7766 1.17187 28.8281 2.22335 28.8281 3.51562C28.8281 4.80788 27.7766 5.85936 26.4844 5.85936C25.1921 5.85936 24.1406 4.80788 24.1406 3.51562C24.1406 2.22335 25.1921 1.17187 26.4844 1.17187Z" fill="black"/>
</g>
<defs>
<clipPath id="clip0_551_730">
<rect width="30" height="30" fill="white"/>
</clipPath>
</defs>
</svg>
