<svg xmlns="http://www.w3.org/2000/svg" xmlns:xlink="http://www.w3.org/1999/xlink" width="50px" height="50px" viewBox="0 0 50 50" version="1.1">
  <g id="surface1">
    <path style="fill:none;stroke-width:3;stroke-linecap:round;stroke-linejoin:round;stroke:rgb(0%,0%,0%);stroke-opacity:1;stroke-miterlimit:4;" d="M -0.0023125 48.063163 L -0.0023125 0.00188762 " transform="matrix(0.404269,0,0,0.404269,0.606404,16.065643)"/>
    <path style="fill:none;stroke-width:3;stroke-linecap:round;stroke-linejoin:round;stroke:rgb(0%,0%,0%);stroke-opacity:1;stroke-miterlimit:4;" d="M 0.00225909 0.00188762 L 0.00225909 48.063163 " transform="matrix(0.404269,0,0,0.404269,49.393618,16.065643)"/>
    <path style="fill:none;stroke-width:3;stroke-linecap:round;stroke-linejoin:round;stroke:rgb(0%,0%,0%);stroke-opacity:1;stroke-miterlimit:4;" d="M 548.157661 632.87316 C 548.157661 639.240748 557.279061 644.912635 571.453948 648.536073 " transform="matrix(0.404269,0,0,0.404269,-220.997725,-220.354957)"/>
    <path style="fill:none;stroke-width:3;stroke-linecap:round;stroke-linejoin:round;stroke:rgb(0%,0%,0%);stroke-opacity:1;stroke-miterlimit:4;" d="M 645.545998 617.210248 C 621.225486 611.634985 595.958048 611.625323 571.627873 617.161935 " transform="matrix(0.404269,0,0,0.404269,-220.997725,-220.354957)"/>
    <path style="fill:none;stroke-width:3;stroke-linecap:round;stroke-linejoin:round;stroke:rgb(0%,0%,0%);stroke-opacity:1;stroke-miterlimit:4;" d="M 645.545998 648.536073 C 659.720886 644.912635 668.842286 639.240748 668.842286 632.87316 " transform="matrix(0.404269,0,0,0.404269,-220.997725,-220.354957)"/>
    <path style="fill:none;stroke-width:3;stroke-linecap:round;stroke-linejoin:round;stroke:rgb(0%,0%,0%);stroke-opacity:1;stroke-miterlimit:4;" d="M 645.545998 600.48446 C 659.720886 596.85136 668.842286 591.179473 668.842286 584.811885 C 668.842286 578.444298 659.720886 572.77241 645.545998 569.148973 C 621.167511 563.564048 595.832436 563.564048 571.453948 569.148973 C 557.279061 572.77241 548.157661 578.444298 548.157661 584.811885 C 548.157661 591.179473 557.279061 596.85136 571.453948 600.48446 " transform="matrix(0.404269,0,0,0.404269,-220.997725,-220.354957)"/>
    <path style="fill:none;stroke-width:3;stroke-linecap:round;stroke-linejoin:round;stroke:rgb(0%,0%,0%);stroke-opacity:1;stroke-miterlimit:4;" d="M 668.842286 584.811885 C 668.842286 573.85461 641.874248 564.955448 608.606261 564.955448 C 575.347936 564.955448 548.157661 573.85461 548.157661 584.811885 " transform="matrix(0.404269,0,0,0.404269,-220.997725,-220.354957)"/>
    <path style="fill:none;stroke-width:3;stroke-linecap:round;stroke-linejoin:round;stroke:rgb(0%,0%,0%);stroke-opacity:1;stroke-miterlimit:4;" d="M 0.00428403 0.00447975 L 0.00428403 48.056092 " transform="matrix(0.404269,0,0,0.404269,39.994362,22.400533)"/>
    <path style="fill:none;stroke-width:3;stroke-linecap:round;stroke-linejoin:round;stroke:rgb(0%,0%,0%);stroke-opacity:1;stroke-miterlimit:4;" d="M -0.00213168 0.00447975 L -0.00213168 48.056092 " transform="matrix(0.404269,0,0,0.404269,10.094612,22.400533)"/>
    <path style="fill:none;stroke-width:3;stroke-linecap:round;stroke-linejoin:round;stroke:rgb(0%,0%,0%);stroke-opacity:1;stroke-miterlimit:4;" d="M 580.198511 581.43001 L 591.001186 581.43001 L 591.001186 592.232685 L 580.198511 592.232685 " transform="matrix(0.404269,0,0,0.404269,-220.997725,-220.354957)"/>
    <path style="fill:none;stroke-width:3;stroke-linecap:round;stroke-linejoin:round;stroke:rgb(0%,0%,0%);stroke-opacity:1;stroke-miterlimit:4;" d="M 580.198511 592.232685 L 591.001186 592.232685 L 591.001186 603.03536 L 580.198511 603.03536 " transform="matrix(0.404269,0,0,0.404269,-220.997725,-220.354957)"/>
    <path style="fill:none;stroke-width:3;stroke-linecap:round;stroke-linejoin:round;stroke:rgb(0%,0%,0%);stroke-opacity:1;stroke-miterlimit:4;" d="M 608.200436 592.232685 L 597.397761 592.232685 L 597.397761 581.43001 L 608.200436 581.43001 " transform="matrix(0.404269,0,0,0.404269,-220.997725,-220.354957)"/>
    <path style="fill:none;stroke-width:3;stroke-linecap:round;stroke-linejoin:round;stroke:rgb(0%,0%,0%);stroke-opacity:1;stroke-miterlimit:4;" d="M 0.0047554 -0.000285992 L 10.80743 -0.000285992 L 10.80743 10.802389 L 0.0047554 10.802389 Z M 0.0047554 -0.000285992 " transform="matrix(0.404269,0,0,0.404269,20.509796,19.066522)"/>
    <path style="fill:none;stroke-width:3;stroke-linecap:round;stroke-linejoin:round;stroke:rgb(0%,0%,0%);stroke-opacity:1;stroke-miterlimit:4;" d="M 625.390023 592.232685 L 625.390023 603.03536 L 614.587348 603.03536 L 614.587348 581.43001 L 625.390023 581.43001 Z M 625.390023 592.232685 " transform="matrix(0.404269,0,0,0.404269,-220.997725,-220.354957)"/>
    <path style="fill:none;stroke-width:3;stroke-linecap:round;stroke-linejoin:round;stroke:rgb(0%,0%,0%);stroke-opacity:1;stroke-miterlimit:4;" d="M 639.651873 584.98581 C 639.651873 586.947298 638.057561 588.54161 636.096073 588.54161 C 634.134586 588.54161 632.540273 586.947298 632.540273 584.98581 C 632.540273 583.024323 634.134586 581.43001 636.096073 581.43001 C 638.057561 581.43001 639.651873 583.024323 639.651873 584.98581 Z M 639.651873 584.98581 " transform="matrix(0.404269,0,0,0.404269,-220.997725,-220.354957)"/>
    <path style="fill:none;stroke-width:3;stroke-linecap:round;stroke-linejoin:round;stroke:rgb(0%,0%,0%);stroke-opacity:1;stroke-miterlimit:4;" d="M 582.807386 627.375198 L 588.633873 639.105473 L 594.470023 627.375198 " transform="matrix(0.404269,0,0,0.404269,-220.997725,-220.354957)"/>
    <path style="fill:none;stroke-width:3;stroke-linecap:round;stroke-linejoin:round;stroke:rgb(0%,0%,0%);stroke-opacity:1;stroke-miterlimit:4;" d="M 615.302373 627.375198 L 621.128861 639.105473 L 624.742636 631.839273 " transform="matrix(0.404269,0,0,0.404269,-220.997725,-220.354957)"/>
    <path style="fill:none;stroke-width:3;stroke-linecap:round;stroke-linejoin:round;stroke:rgb(0%,0%,0%);stroke-opacity:1;stroke-miterlimit:4;" d="M 622.529923 627.375198 L 628.366073 639.105473 L 634.192561 627.375198 " transform="matrix(0.404269,0,0,0.404269,-220.997725,-220.354957)"/>
    <path style="fill:none;stroke-width:3;stroke-linecap:round;stroke-linejoin:round;stroke:rgb(0%,0%,0%);stroke-opacity:1;stroke-miterlimit:4;" d="M -0.0000341475 -0.00279294 L -0.0000341475 11.727482 " transform="matrix(0.404269,0,0,0.404269,21.273451,33.274567)"/>
    <path style="fill:none;stroke-width:3;stroke-linecap:round;stroke-linejoin:round;stroke:rgb(0%,0%,0%);stroke-opacity:1;stroke-miterlimit:4;" d="M 610.722348 627.375198 L 604.219486 627.375198 L 604.219486 639.105473 L 610.722348 639.105473 " transform="matrix(0.404269,0,0,0.404269,-220.997725,-220.354957)"/>
    <path style="fill:none;stroke-width:3;stroke-linecap:round;stroke-linejoin:round;stroke:rgb(0%,0%,0%);stroke-opacity:1;stroke-miterlimit:4;" d="M 4.678118 -0.00166909 L 0.00146821 -0.00166909 " transform="matrix(0.404269,0,0,0.404269,23.268938,35.645206)"/>
  </g>
</svg>
