<svg width="24" height="24" viewBox="0 0 24 24" fill="none" xmlns="http://www.w3.org/2000/svg">
<path d="M14 19C14 20.1046 13.1046 21 12 21C10.8954 21 10 20.1046 10 19C10 17.8954 10.8954 17 12 17C13.1046 17 14 17.8954 14 19ZM14 19H17C18.1046 19 19 18.1046 19 17V13M19 13V10H17C15.8954 10 15 10.8954 15 12V13C15 14.1046 15.8954 15 17 15C18.1046 15 19 14.1046 19 13ZM5 11V9C5 5.68629 7.68629 3 11 3H13C16.3137 3 19 5.68629 19 9V11M5 10L5 13C5 14.1046 5.89543 15 7 15C8.10457 15 9 14.1046 9 13V12C9 10.8954 8.10457 10 7 10H5Z" stroke="white" stroke-linecap="round" stroke-linejoin="round"/>
</svg>
