<svg width="992" height="441" viewBox="0 0 992 441" fill="none" xmlns="http://www.w3.org/2000/svg">
<g filter="url(#filter0_f_1046_580)">
<path fill-rule="evenodd" clip-rule="evenodd" d="M852.902 222.699C857.187 198.847 823.013 177.874 811.811 154.363C799.584 128.703 799.668 102.073 783.551 77.1552C762.798 45.0677 746.477 9.12439 703.57 -12.9904C659.976 -35.4592 600.839 -47.4189 546.49 -45.0287C492.343 -42.6473 454.269 -13.6138 405.545 0.116607C355.925 14.0992 273.936 4.8872 255.006 37.1109C232.747 75.0013 306.32 114.391 314.247 155.527C319.006 180.226 291.762 201.913 291.521 226.613C291.258 253.67 294.472 281.419 312.777 306.571C332.003 332.986 356.163 363.683 398.976 374.252C444.08 385.387 491.26 367.555 537.431 362.03C571.036 358.008 600.962 347.386 635.322 345.968C676.725 344.259 725.392 367.194 759.038 352.882C791.778 338.956 772.717 303.318 789.141 280.538C804.801 258.818 848.579 246.76 852.902 222.699Z" fill="url(#paint0_linear_1046_580)" fill-opacity="0.3"/>
</g>
<defs>
<filter id="filter0_f_1046_580" x="0.828613" y="-295.33" width="1102.44" height="923.17" filterUnits="userSpaceOnUse" color-interpolation-filters="sRGB">
<feFlood flood-opacity="0" result="BackgroundImageFix"/>
<feBlend mode="normal" in="SourceGraphic" in2="BackgroundImageFix" result="shape"/>
<feGaussianBlur stdDeviation="125" result="effect1_foregroundBlur_1046_580"/>
</filter>
<linearGradient id="paint0_linear_1046_580" x1="650.178" y1="97.4178" x2="530.769" y2="269.096" gradientUnits="userSpaceOnUse">
<stop stop-color="white"/>
<stop offset="1" stop-color="white" stop-opacity="0"/>
</linearGradient>
</defs>
</svg>
