<svg width="96" height="51" viewBox="0 0 96 51" fill="none" xmlns="http://www.w3.org/2000/svg">
<path d="M95.5 16.7663L25.5736 45.5045C25.0794 44.6386 25.6314 44.2033 25.8943 43.7365C28.1234 39.8275 30.3842 35.9285 32.6084 32.0144C33.134 31.081 33.5388 30.5315 34.3379 31.8275C37.1141 36.3331 45.4946 36.0841 49.2328 32.0297C54.4905 25.7097 62.2767 26.0105 69.4694 24.1699C78.7281 14.5317 4.90062 29.7277 0.5 31.3194C11.0415 23.0292 77.5554 12.743 95.5 16.7663Z" fill="white"/>
<path d="M78.4178 50.6475C75.8207 50.0514 68.665 52.203 68.1919 48.9628C67.2175 44.1476 66.1868 39.3418 65.1004 34.5442C64.7689 33.0874 65.1951 32.3718 66.6303 31.8483C70.8049 30.3137 74.946 28.6961 79.0541 26.9955C80.4 26.4407 80.926 26.8089 81.3253 28.0326C83.5508 35.0179 85.803 41.9944 88.0813 48.9628C89.7216 52.0734 80.1949 50.0621 78.4178 50.6062V50.6475Z" fill="white"/>
<path d="M42.298 17.0204C45.6053 11.7217 48.8962 6.46964 52.156 1.19686C52.7236 0.284365 53.5807 0.320688 54.4538 0.320688C74.1801 1.44575 71.0101 -4.63581 76.0099 11.5972C76.357 12.6653 76.4304 13.3963 74.8848 13.4015C63.8753 13.0179 52.9236 15.7761 42.298 17.0204Z" fill="white"/>
<path d="M46.0886 39.9363C39.7796 55.2205 44.5114 49.7454 23.8122 50.6788C21.2518 51.3009 21.4357 49.0611 23.6229 48.605C31.2937 45.6653 38.2969 42.8916 46.0886 39.9363Z" fill="white"/>
</svg>
