<svg width="115" height="85" viewBox="0 0 115 85" fill="none" xmlns="http://www.w3.org/2000/svg">
<path d="M104.167 6C104.167 8.94552 106.554 11.3333 109.5 11.3333C112.446 11.3333 114.833 8.94552 114.833 6C114.833 3.05448 112.446 0.666667 109.5 0.666667C106.554 0.666667 104.167 3.05448 104.167 6ZM0.166667 79C0.166667 81.9455 2.55448 84.3333 5.5 84.3333C8.44552 84.3333 10.8333 81.9455 10.8333 79C10.8333 76.0545 8.44552 73.6667 5.5 73.6667C2.55448 73.6667 0.166667 76.0545 0.166667 79ZM108.925 5.18151L4.92548 78.1815L6.07452 79.8185L110.075 6.81849L108.925 5.18151Z" fill="#F5F5F5"/>
</svg>
