<svg width="36" height="13" viewBox="0 0 36 13" fill="none" xmlns="http://www.w3.org/2000/svg">
<path d="M0.96 3.04L7.36 5.84V6.96L0.96 9.76V8.576L6.16 6.4L0.96 4.224V3.04ZM8.9525 12V10.992L12.9845 6.928C13.9285 5.984 14.7125 5.008 14.7125 3.968C14.7125 2.448 13.6085 1.696 12.4565 1.696C11.3685 1.696 10.4885 2.176 9.9445 3.28L9.0005 2.72C9.7205 1.296 11.0325 0.608 12.4565 0.608C14.1205 0.608 15.8325 1.776 15.8325 3.968C15.8325 5.392 14.8885 6.592 13.7525 7.728L10.5525 10.912H16.0725V12H8.9525ZM21.6025 12.192C18.8665 12.192 17.3625 9.856 17.3625 6.4C17.3625 2.944 18.8665 0.608 21.6025 0.608C24.3385 0.608 25.8425 2.944 25.8425 6.4C25.8425 9.856 24.3385 12.192 21.6025 12.192ZM21.6025 11.104C23.5705 11.104 24.7225 9.392 24.7225 6.4C24.7225 3.408 23.5705 1.696 21.6025 1.696C19.6345 1.696 18.4825 3.408 18.4825 6.4C18.4825 9.392 19.6345 11.104 21.6025 11.104ZM31.6806 12.192C28.9446 12.192 27.4406 9.856 27.4406 6.4C27.4406 2.944 28.9446 0.608 31.6806 0.608C34.4166 0.608 35.9206 2.944 35.9206 6.4C35.9206 9.856 34.4166 12.192 31.6806 12.192ZM31.6806 11.104C33.6486 11.104 34.8006 9.392 34.8006 6.4C34.8006 3.408 33.6486 1.696 31.6806 1.696C29.7126 1.696 28.5606 3.408 28.5606 6.4C28.5606 9.392 29.7126 11.104 31.6806 11.104Z" fill="white"/>
</svg>
