<svg width="41" height="40" viewBox="0 0 41 40" fill="none" xmlns="http://www.w3.org/2000/svg">
<g clip-path="url(#clip0_4072_16390)">
<g clip-path="url(#clip1_4072_16390)">
<path d="M24.415 16.4046C24.4143 16.4046 24.4135 16.4046 24.4127 16.4046L21.7254 16.4097L20.8999 13.8523C20.7766 13.4702 20.424 13.2135 20.0225 13.2135C19.621 13.2135 19.2684 13.4702 19.1451 13.8523L18.3196 16.4097L15.6325 16.4046C15.6317 16.4046 15.631 16.4046 15.6303 16.4046C15.2297 16.4046 14.8775 16.6604 14.7536 17.0416C14.6296 17.4236 14.7648 17.8382 15.09 18.0735L17.2671 19.6489L16.4318 22.2031C16.3069 22.5847 16.4414 22.9997 16.7661 23.2355C17.091 23.4716 17.5272 23.4711 17.8515 23.2345L20.0225 21.6508L22.1933 23.2344C22.3558 23.353 22.5463 23.4123 22.7368 23.4123C22.9267 23.4123 23.1166 23.3534 23.2787 23.2356C23.6035 22.9996 23.7379 22.5846 23.6131 22.2031L22.7778 19.6489L24.9548 18.0735C25.2801 17.8382 25.4154 17.4236 25.2913 17.0416C25.1675 16.6603 24.8154 16.4046 24.415 16.4046ZM21.9617 18.8123C21.6357 19.0481 21.5007 19.4635 21.6258 19.8459L22.2887 21.8728L20.566 20.6161C20.4034 20.4975 20.213 20.4381 20.0225 20.4381C19.8321 20.4381 19.6417 20.4975 19.4792 20.6161L17.7564 21.8728L18.4193 19.8459C18.5442 19.4634 18.4093 19.0481 18.0834 18.8124L16.3558 17.5623L18.4883 17.5664H18.4901C18.8916 17.5664 19.2441 17.3098 19.3675 16.9276L20.0225 14.8983L20.6776 16.9275C20.801 17.3098 21.1534 17.5664 21.5551 17.5664H21.5568L23.6892 17.5623L21.9617 18.8123ZM32.0019 4.21783V3.15625C32.0019 2.83698 32.2608 2.57812 32.5801 2.57812C32.8993 2.57812 33.1582 2.83698 33.1582 3.15625V4.21783C33.1582 4.5371 32.8993 4.79596 32.5801 4.79596C32.2608 4.79596 32.0019 4.5371 32.0019 4.21783ZM32.0019 8.39254V7.33096C32.0019 7.01169 32.2608 6.75284 32.5801 6.75284C32.8993 6.75284 33.1582 7.01169 33.1582 7.33096V8.39254C33.1582 8.71181 32.8993 8.97067 32.5801 8.97067C32.2608 8.97067 32.0019 8.71181 32.0019 8.39254ZM29.3838 5.77436C29.3838 5.45509 29.6426 5.19624 29.9619 5.19624H31.0235C31.3428 5.19624 31.6017 5.45509 31.6017 5.77436C31.6017 6.09363 31.3428 6.35249 31.0235 6.35249H29.9619C29.6426 6.35249 29.3838 6.09363 29.3838 5.77436ZM33.5585 5.77436C33.5585 5.45509 33.8173 5.19624 34.1366 5.19624H35.1982C35.5175 5.19624 35.7764 5.45509 35.7764 5.77436C35.7764 6.09363 35.5175 6.35249 35.1982 6.35249H34.1366C33.8172 6.35249 33.5585 6.09363 33.5585 5.77436ZM6.88681 4.21783V3.15625C6.88681 2.83698 7.14567 2.57812 7.46494 2.57812C7.78421 2.57812 8.04306 2.83698 8.04306 3.15625V4.21783C8.04306 4.5371 7.78421 4.79596 7.46494 4.79596C7.14567 4.79596 6.88681 4.5371 6.88681 4.21783ZM8.44334 5.77436C8.44334 5.45509 8.7022 5.19624 9.02147 5.19624H10.0831C10.4024 5.19624 10.6612 5.45509 10.6612 5.77436C10.6612 6.09363 10.4024 6.35249 10.0831 6.35249H9.02147C8.7022 6.35249 8.44334 6.09363 8.44334 5.77436ZM6.88681 8.39254V7.33096C6.88681 7.01169 7.14567 6.75284 7.46494 6.75284C7.78421 6.75284 8.04306 7.01169 8.04306 7.33096V8.39254C8.04306 8.71181 7.78421 8.97067 7.46494 8.97067C7.14567 8.97067 6.88681 8.71181 6.88681 8.39254ZM5.90841 6.35249H4.84675C4.52748 6.35249 4.26863 6.09363 4.26863 5.77436C4.26863 5.45509 4.52748 5.19624 4.84675 5.19624H5.90841C6.22768 5.19624 6.48653 5.45509 6.48653 5.77436C6.48653 6.09363 6.22775 6.35249 5.90841 6.35249ZM5.87502 8.93772V9.9993C5.87502 10.3186 5.61616 10.5774 5.29689 10.5774C4.97763 10.5774 4.71877 10.3186 4.71877 9.9993V8.93772C4.71877 8.61845 4.97763 8.35959 5.29689 8.35959C5.61616 8.35959 5.87502 8.61845 5.87502 8.93772ZM5.87502 13.1124V14.1739C5.87502 14.4932 5.61616 14.7521 5.29689 14.7521C4.97763 14.7521 4.71877 14.4932 4.71877 14.1739V13.1124C4.71877 12.7931 4.97763 12.5342 5.29689 12.5342C5.61616 12.5342 5.87502 12.7932 5.87502 13.1124ZM6.85342 10.9777H7.91508C8.23435 10.9777 8.4932 11.2366 8.4932 11.5558C8.4932 11.8751 8.23435 12.134 7.91508 12.134H6.85342C6.53415 12.134 6.2753 11.8751 6.2753 11.5558C6.2753 11.2366 6.53415 10.9777 6.85342 10.9777ZM4.31849 11.5558C4.31849 11.8751 4.05963 12.134 3.74037 12.134H2.67871C2.35944 12.134 2.10059 11.8751 2.10059 11.5558C2.10059 11.2366 2.35944 10.9777 2.67871 10.9777H3.74037C4.05971 10.9777 4.31849 11.2366 4.31849 11.5558ZM5.87502 29.5553V30.6169C5.87502 30.9362 5.61616 31.195 5.29689 31.195C4.97763 31.195 4.71877 30.9362 4.71877 30.6169V29.5553C4.71877 29.236 4.97763 28.9772 5.29689 28.9772C5.61616 28.9772 5.87502 29.236 5.87502 29.5553ZM4.31849 27.9988C4.31849 28.3181 4.05963 28.5769 3.74037 28.5769H2.67871C2.35944 28.5769 2.10059 28.3181 2.10059 27.9988C2.10059 27.6795 2.35944 27.4207 2.67871 27.4207H3.74037C4.05971 27.4207 4.31849 27.6795 4.31849 27.9988ZM7.91508 28.5769H6.85342C6.53415 28.5769 6.2753 28.3181 6.2753 27.9988C6.2753 27.6795 6.53415 27.4207 6.85342 27.4207H7.91508C8.23435 27.4207 8.4932 27.6795 8.4932 27.9988C8.4932 28.3181 8.23435 28.5769 7.91508 28.5769ZM5.87502 25.3806V26.4423C5.87502 26.7615 5.61616 27.0204 5.29689 27.0204C4.97763 27.0204 4.71877 26.7615 4.71877 26.4423V25.3806C4.71877 25.0613 4.97763 24.8025 5.29689 24.8025C5.61616 24.8025 5.87502 25.0613 5.87502 25.3806ZM36.8995 24.5618C36.8995 22.0067 35.3223 19.8141 33.0909 18.9032L33.3878 18.3158C34.0648 16.9765 33.7845 15.3867 32.6903 14.3597L31.1684 12.9313C30.8338 12.6172 30.6379 12.278 30.5332 11.8311L30.0571 9.79891C29.7149 8.33777 28.4783 7.30011 26.9799 7.21678L24.8959 7.10087C24.4376 7.07529 24.0694 6.94131 23.7022 6.66634L22.0311 5.41549C20.8297 4.51629 19.2154 4.51629 18.0141 5.41549L16.343 6.66634C15.9757 6.94131 15.6075 7.07529 15.1493 7.10087L13.0653 7.21678C11.5669 7.30011 10.3303 8.33784 9.98802 9.79891L9.51193 11.8312C9.40722 12.2781 9.21138 12.6173 8.87679 12.9313L7.35473 14.3597C6.26056 15.3867 5.98024 16.9765 6.65722 18.3158L7.59884 20.1786C7.80589 20.5881 7.87389 20.9739 7.8194 21.4296L7.57167 23.5022C7.39354 24.9922 8.20075 26.3902 9.58015 26.981L11.1155 27.6385L7.92209 34.4977C7.79187 34.7774 7.82757 35.1032 8.01531 35.3481C8.20291 35.5929 8.50823 35.7117 8.81211 35.6589L12.1587 35.0742L13.8655 38.0115C14.0142 38.2672 14.2846 38.4219 14.5779 38.4219C14.5905 38.4219 14.6033 38.4217 14.616 38.4211C14.9242 38.4073 15.1966 38.2249 15.3269 37.9451L18.351 31.4495L19.3872 31.1363C19.8266 31.0034 20.2184 31.0034 20.6576 31.1363L21.694 31.4495L24.7181 37.9448C24.8483 38.2247 25.1207 38.4071 25.4285 38.4209C25.4413 38.4216 25.454 38.4219 25.4667 38.4219C25.7603 38.4219 26.0308 38.267 26.1795 38.0113L27.8863 35.074L31.2329 35.6587C31.537 35.7119 31.842 35.5927 32.0298 35.3478C32.2174 35.1029 32.253 34.7772 32.1228 34.4976L30.3329 30.653C30.4838 30.6642 30.6356 30.6719 30.7893 30.6719C34.1585 30.672 36.8995 27.9309 36.8995 24.5618ZM35.7433 24.5618C35.7433 27.2934 33.521 29.5157 30.7895 29.5157C28.0579 29.5157 25.8357 27.2934 25.8357 24.5618C25.8357 21.8303 28.0579 19.608 30.7895 19.608C33.521 19.608 35.7433 21.8303 35.7433 24.5618ZM24.6793 24.5618C24.6793 24.5663 24.6797 24.5708 24.6797 24.5753C23.3275 25.5848 21.7237 26.1175 20.0225 26.1175C15.7193 26.1175 12.2182 22.6165 12.2182 18.3132C12.2182 14.0098 15.7192 10.5088 20.0225 10.5088C24.3259 10.5088 27.8269 14.0098 27.8269 18.3132C27.8269 18.6272 27.8076 18.9422 27.7704 19.2531C25.9261 20.306 24.6793 22.2905 24.6793 24.5618ZM14.5465 36.8819L12.956 34.1448C12.8343 33.9355 12.5954 33.8243 12.3566 33.8657L9.23812 34.4106L12.1271 28.2053C12.2538 28.3237 12.3676 28.4596 12.472 28.6193L13.6145 30.3663C14.249 31.3364 15.2986 31.8866 16.4056 31.8866C16.5656 31.8866 16.7269 31.875 16.8884 31.8516L14.5465 36.8819ZM19.0529 30.0294L17.0549 30.6332C16.0992 30.922 15.1287 30.5688 14.5823 29.7333L13.4399 27.9864C13.0668 27.4159 12.5809 27.0082 11.9542 26.7398L10.0355 25.9181C9.1178 25.5251 8.60139 24.6306 8.71983 23.6394L8.96756 21.5668C9.04849 20.89 8.93829 20.2652 8.6308 19.6569L7.68918 17.7941C7.23882 16.9032 7.41818 15.886 8.14604 15.2028L9.66803 13.7744C10.165 13.308 10.4822 12.7586 10.6377 12.0949L11.1138 10.0626C11.3415 9.09063 12.1327 8.42665 13.1295 8.37123L15.2136 8.25531C15.8943 8.21745 16.4904 8.00043 17.0359 7.59199L18.707 6.34114C19.5063 5.743 20.5391 5.743 21.3383 6.34114L23.0093 7.59199C23.5549 8.00036 24.1509 8.21737 24.8317 8.25531L26.9157 8.37123C27.9125 8.42673 28.7037 9.09063 28.9314 10.0627L29.4075 12.0949C29.563 12.7586 29.8801 13.3079 30.3771 13.7743L31.8991 15.2028C32.627 15.886 32.8064 16.9032 32.356 17.7941L31.9656 18.5665C31.5848 18.4919 31.1918 18.4518 30.7895 18.4518C30.1571 18.4518 29.5469 18.5484 28.9727 18.7275C28.9791 18.5894 28.9832 18.4512 28.9832 18.3132C28.9832 13.3723 24.9635 9.35259 20.0226 9.35259C15.0817 9.35259 11.062 13.3723 11.062 18.3132C11.062 23.254 15.0817 27.2737 20.0226 27.2737C21.7244 27.2737 23.3958 26.7818 24.8235 25.877C25.0497 26.9037 25.5345 27.834 26.2064 28.5963L25.4628 29.7333C24.9164 30.5688 23.946 30.9223 22.9903 30.6332L20.9923 30.0294C20.3397 29.8323 19.7054 29.8323 19.0529 30.0294ZM30.8069 34.4106L27.6885 33.8657C27.4501 33.8245 27.2107 33.9355 27.0891 34.1448L25.4986 36.8818L23.1565 31.8511C24.4339 32.0363 25.7042 31.4767 26.4305 30.3662L27.0629 29.3991C27.6183 29.8279 28.2486 30.1637 28.9314 30.3822L30.8069 34.4106ZM29.2356 23.4049C28.9715 23.1408 28.6202 22.9953 28.2466 22.9953C27.873 22.9953 27.5217 23.1409 27.2576 23.4049C26.9934 23.6691 26.8479 24.0203 26.8479 24.394C26.8479 24.7676 26.9934 25.1188 27.2576 25.383L29.0756 27.201C29.3483 27.4736 29.7064 27.61 30.0646 27.61C30.4227 27.6099 30.7809 27.4736 31.0535 27.201C31.7422 26.5124 32.4367 25.808 33.1083 25.1267C33.5137 24.7156 33.9191 24.3044 34.3255 23.8942C34.8671 23.3476 34.8641 22.4617 34.3189 21.9197C34.0538 21.656 33.701 21.5145 33.328 21.513C32.9546 21.5145 32.6044 21.6613 32.3419 21.9264L30.0608 24.2303L29.2356 23.4049ZM30.0643 25.628C30.2181 25.6276 30.3654 25.566 30.4737 25.4566L33.1636 22.7399C33.2241 22.6787 33.2953 22.6693 33.3325 22.6692H33.3334C33.371 22.6692 33.4424 22.6784 33.5037 22.7394C33.5976 22.8329 33.5978 22.9858 33.5042 23.0804C33.0971 23.4913 32.6911 23.9031 32.285 24.3149C31.6148 24.9947 30.9218 25.6976 30.236 26.3834C30.1415 26.478 29.9877 26.478 29.8932 26.3834L28.0751 24.5653C28.0134 24.5036 28.0042 24.4315 28.0042 24.394C28.0042 24.3565 28.0134 24.2843 28.0752 24.2225C28.1369 24.1608 28.2091 24.1517 28.2466 24.1517C28.2841 24.1517 28.3563 24.1609 28.418 24.2226L29.654 25.4587C29.7624 25.5671 29.9095 25.628 30.0628 25.628C30.0633 25.628 30.0638 25.628 30.0643 25.628Z" fill="white"/>
</g>
</g>
<defs>
<clipPath id="clip0_4072_16390">
<rect width="40" height="40" fill="white" transform="translate(0.666992)"/>
</clipPath>
<clipPath id="clip1_4072_16390">
<rect width="40" height="40" fill="white" transform="translate(1)"/>
</clipPath>
</defs>
</svg>
