<svg width="41" height="40" viewBox="0 0 41 40" fill="none" xmlns="http://www.w3.org/2000/svg">
<g clip-path="url(#clip0_4072_16401)">
<g clip-path="url(#clip1_4072_16401)">
<path d="M38.5654 20.6526H33.3458C33.0033 20.6529 32.6722 20.7757 32.4123 20.9988C32.1524 21.2219 31.9809 21.5305 31.9287 21.869C31.633 23.762 30.8886 25.5568 29.7576 27.1033C29.7318 27.1392 29.7068 27.176 29.6849 27.2135C29.5145 27.4882 29.4418 27.8124 29.4783 28.1336C29.5149 28.4548 29.6587 28.7543 29.8865 28.9837L33.5802 32.6774C33.7228 32.8201 33.8939 32.9312 34.0823 33.0033C34.2707 33.0754 34.4722 33.1069 34.6736 33.0958C34.875 33.0848 35.0719 33.0314 35.2512 32.9391C35.4306 32.8468 35.5885 32.7177 35.7146 32.5602L35.7201 32.5532L35.724 32.5485C36.1492 32.0169 36.5468 31.4638 36.9154 30.8915C36.9177 30.8886 36.9198 30.8854 36.9216 30.8821C36.9763 30.7978 37.0294 30.7134 37.0826 30.6282L37.106 30.5907C37.1529 30.5126 37.1982 30.4407 37.2435 30.365L37.2857 30.2954C37.3248 30.2298 37.3638 30.1626 37.4021 30.0962L37.4591 29.9978C37.4919 29.9415 37.5232 29.8837 37.5552 29.8267C37.5794 29.7837 37.6044 29.7407 37.6287 29.697C37.6529 29.6532 37.6779 29.6048 37.7029 29.5595C37.7279 29.5142 37.763 29.4486 37.7919 29.3931C37.8115 29.3572 37.8294 29.3204 37.8482 29.2845C37.8826 29.2189 37.9169 29.1533 37.9505 29.0869L37.9951 28.997C38.0318 28.9236 38.0685 28.8509 38.1037 28.7775L38.1271 28.729C38.1693 28.6416 38.2107 28.5533 38.2521 28.465L38.2826 28.397C38.3208 28.3189 38.3607 28.233 38.3951 28.1502C38.4419 28.0447 38.488 27.9392 38.5326 27.8322C38.9561 26.8316 39.2976 25.7983 39.5537 24.7424C39.5818 24.6252 39.6091 24.508 39.6318 24.3909C39.6841 24.1565 39.7326 23.9221 39.7763 23.6838C39.8638 23.2104 39.9341 22.7336 39.9873 22.2534C40.0105 22.0526 39.991 21.8492 39.9302 21.6565C39.8694 21.4638 39.7686 21.2861 39.6344 21.135C39.5002 20.9839 39.3356 20.8628 39.1514 20.7797C38.9672 20.6966 38.7675 20.6533 38.5654 20.6526ZM39.2138 22.1651C39.163 22.6245 39.0951 23.087 39.0107 23.5393C38.9685 23.7666 38.9224 23.9955 38.8724 24.2182C38.8474 24.3315 38.8216 24.444 38.7943 24.5565C38.5479 25.5709 38.2198 26.5637 37.813 27.5252C37.7701 27.6275 37.7255 27.7291 37.681 27.8306C37.6458 27.9088 37.6091 27.9869 37.5732 28.065L37.5427 28.1306C37.5037 28.215 37.4638 28.2994 37.4232 28.3837L37.3998 28.4322C37.3669 28.5009 37.3318 28.5705 37.2966 28.6408L37.2537 28.7267C37.2294 28.7759 37.2044 28.8236 37.1755 28.872L37.0974 29.0228L37.038 29.1322L36.9404 29.3142L36.8404 29.4915C36.8201 29.529 36.799 29.5665 36.7771 29.604L36.7068 29.7243C36.6748 29.7798 36.6435 29.8345 36.6107 29.8892L36.5701 29.9556C36.5263 30.0282 36.4826 30.1009 36.438 30.1728L36.4138 30.2118C36.3654 30.29 36.3146 30.3681 36.263 30.4501L36.2552 30.4626C35.9057 31.005 35.5289 31.5294 35.1263 32.0337L35.099 32.068C35.0413 32.1392 34.9693 32.1975 34.8877 32.239C34.806 32.2806 34.7166 32.3046 34.6251 32.3094C34.5336 32.3141 34.4422 32.2997 34.3566 32.2668C34.2711 32.234 34.1934 32.1836 34.1287 32.1188L30.4388 28.4291C30.335 28.3239 30.2698 28.1867 30.2538 28.0397C30.2377 27.8928 30.2718 27.7448 30.3505 27.6197C30.3622 27.599 30.3752 27.5792 30.3896 27.5603C31.5906 25.913 32.3827 24.0038 32.7005 21.9901C32.7236 21.8355 32.8014 21.6942 32.9198 21.5921C33.0383 21.49 33.1895 21.4339 33.3458 21.4339H38.5654C38.6569 21.4333 38.7474 21.4523 38.831 21.4897C38.9145 21.527 38.9891 21.5817 39.0498 21.6503C39.1123 21.7194 39.1594 21.8011 39.1877 21.8899C39.216 21.9787 39.2249 22.0726 39.2138 22.1651ZM29.688 12.7864C29.7115 12.8262 29.7365 12.8645 29.7662 12.9028C30.8967 14.4493 31.6404 16.2442 31.9349 18.1371C31.9869 18.4758 32.1584 18.7847 32.4183 19.0081C32.6782 19.2315 33.0094 19.3545 33.3521 19.355H38.5724C38.7745 19.3547 38.9743 19.3117 39.1586 19.2288C39.343 19.146 39.5078 19.0252 39.6423 18.8744C39.7767 18.7235 39.8779 18.546 39.9391 18.3534C40.0003 18.1608 40.0202 17.9574 39.9974 17.7566C39.9578 17.3957 39.9081 17.0368 39.8482 16.6801C39.7695 16.2046 39.6737 15.7324 39.5607 15.2637C39.5318 15.1465 39.5029 15.0293 39.4724 14.9137C39.4115 14.6798 39.3464 14.4478 39.2771 14.2176C39.2078 13.9874 39.1341 13.7575 39.056 13.5278C38.8998 13.07 38.7271 12.6171 38.538 12.1692C38.5029 12.0848 38.4662 12.0013 38.4294 11.9177C38.3833 11.8138 38.3373 11.7099 38.2896 11.6052C38.2787 11.5817 38.2685 11.5583 38.2576 11.5356C38.231 11.4786 38.2037 11.4216 38.1794 11.3653C38.1552 11.3091 38.1349 11.27 38.1123 11.2231C38.0896 11.1763 38.074 11.145 38.0544 11.1075C38.0232 11.0427 37.9912 10.9778 37.9583 10.9138C37.9466 10.8896 37.9341 10.8661 37.9216 10.8419C37.8818 10.7638 37.8435 10.6857 37.8005 10.6075C37.7943 10.5958 37.7873 10.5849 37.7818 10.5732C37.7341 10.4833 37.6857 10.3935 37.6365 10.3044L37.6232 10.2802C37.5724 10.188 37.5208 10.0958 37.4669 10.0044L37.4537 9.98254C37.4013 9.89036 37.3474 9.79895 37.2935 9.70755C37.288 9.69895 37.2826 9.69036 37.2779 9.68177C37.224 9.59193 37.1701 9.50286 37.1154 9.41459C37.1044 9.3974 37.0935 9.38099 37.0833 9.3638C37.0333 9.28568 36.9833 9.20365 36.9318 9.12397L36.8818 9.04584C36.8365 8.97553 36.7912 8.90522 36.7443 8.83569C36.7138 8.7896 36.6818 8.74429 36.6505 8.69819C36.6193 8.6521 36.5857 8.60132 36.5521 8.55288L36.3958 8.33258L36.3544 8.27398C36.1529 7.99274 35.9445 7.7167 35.7294 7.44587C35.6034 7.29091 35.4463 7.16399 35.2684 7.07324C35.0904 6.9825 34.8954 6.92992 34.696 6.91889C34.4965 6.90786 34.2969 6.93861 34.1101 7.00918C33.9232 7.07975 33.7531 7.18857 33.6107 7.32869H33.5912L29.8912 11.0216C29.6643 11.2504 29.521 11.5488 29.4841 11.8688C29.4473 12.1889 29.5191 12.5121 29.688 12.7864ZM30.4466 11.5739L33.8912 8.12945H33.9068L34.149 7.8904C34.2136 7.82636 34.291 7.7766 34.376 7.7443C34.4611 7.71201 34.552 7.69791 34.6428 7.70292C34.7336 7.70793 34.8224 7.73192 34.9034 7.77337C34.9844 7.81481 35.0558 7.87277 35.113 7.94352L35.1662 8.00836C35.3537 8.24273 35.538 8.48882 35.713 8.73491L35.7521 8.79038C35.8029 8.86147 35.8529 8.93178 35.9021 9.00287C35.9232 9.03256 35.9435 9.06303 35.9638 9.09272L36.0294 9.18959L36.0873 9.27474C36.1287 9.33646 36.1693 9.39896 36.2099 9.46146L36.2677 9.55052C36.3162 9.62864 36.3646 9.70677 36.4123 9.77942L36.4427 9.82786C36.4958 9.91379 36.5482 9.99895 36.599 10.0849L36.6107 10.1044C36.6669 10.1974 36.7177 10.2857 36.7669 10.3739L36.7763 10.3903C36.8294 10.4833 36.8794 10.5716 36.9279 10.6599L36.9427 10.6864C36.988 10.7692 37.0349 10.8552 37.0802 10.9411L37.0982 10.9747C37.138 11.0528 37.1763 11.1247 37.2146 11.2005L37.2498 11.2685C37.2755 11.3185 37.299 11.3669 37.3232 11.4161L37.4013 11.5669L37.4662 11.7036L37.4919 11.7583C37.5091 11.7942 37.5271 11.8309 37.5435 11.8677L37.5748 11.9356C37.6193 12.0333 37.6646 12.1333 37.7083 12.2333C37.7435 12.3114 37.7787 12.3942 37.813 12.4755C37.9943 12.9036 38.1623 13.3426 38.3107 13.7809C38.3888 13.9997 38.4568 14.2223 38.5232 14.4434C38.5896 14.6645 38.6529 14.8887 38.7107 15.1121C38.7404 15.2246 38.7685 15.3363 38.7958 15.4488C38.9037 15.8973 38.9966 16.3551 39.0724 16.8098C39.1287 17.1512 39.1771 17.4996 39.2154 17.8441C39.2262 17.9367 39.2172 18.0306 39.1887 18.1194C39.1603 18.2082 39.1132 18.2899 39.0505 18.3589C38.9901 18.4275 38.9156 18.4822 38.8322 18.5195C38.7488 18.5569 38.6583 18.5759 38.5669 18.5753H33.3466C33.1901 18.5753 33.0389 18.5191 32.9204 18.4168C32.8019 18.3146 32.7242 18.1731 32.7013 18.0183C32.3851 16.0024 31.5932 14.0908 30.3912 12.4419C30.378 12.4241 30.366 12.4056 30.3552 12.3864C30.2762 12.2609 30.2418 12.1123 30.2579 11.9648C30.2739 11.8173 30.3393 11.6795 30.4435 11.5739H30.4466ZM18.1427 31.929H18.1318H18.1255C17.291 31.7985 16.4727 31.5801 15.6841 31.2774L15.674 31.2727C15.5669 31.2321 15.4599 31.1892 15.3544 31.1446L15.3091 31.1251C15.2154 31.0853 15.1224 31.047 15.0294 31.0032C15.0013 30.9907 14.974 30.9767 14.9459 30.9634C14.8677 30.9274 14.7896 30.8907 14.7115 30.8524C14.6701 30.8321 14.6294 30.8103 14.5888 30.7899C14.5248 30.7571 14.4607 30.7259 14.3974 30.6923C14.3341 30.6587 14.2873 30.6321 14.2318 30.6024C14.1763 30.5728 14.1357 30.5509 14.088 30.5243C14.0154 30.4837 13.9443 30.4415 13.8732 30.3993L13.7841 30.347C13.6958 30.2939 13.6091 30.2392 13.5224 30.1845L13.4865 30.1611C13.2891 30.0345 13.0953 29.9019 12.9052 29.7634L12.8966 29.7579C12.6202 29.5534 12.2797 29.4546 11.9367 29.4795C11.5937 29.5045 11.271 29.6515 11.0271 29.8939L7.32866 33.5821C7.18611 33.7248 7.07523 33.8959 7.00326 34.0843C6.93129 34.2727 6.89985 34.4742 6.91098 34.6756C6.92211 34.877 6.97557 35.0738 7.06786 35.2531C7.16016 35.4324 7.28922 35.5903 7.44663 35.7164L7.45679 35.7242L7.61304 35.8461L7.72085 35.9305C8.80034 36.7644 9.96239 37.4856 11.1888 38.0828L11.224 38.1007L11.4341 38.2L11.5373 38.2492L11.6701 38.3093C11.8357 38.3875 12.0021 38.4585 12.1701 38.5296L12.1873 38.5367C13.6129 39.1384 15.1036 39.5726 16.6294 39.8304L16.6709 39.8374C16.7584 39.8523 16.8458 39.8655 16.9326 39.8788L17.031 39.8945L17.2318 39.9218L17.3935 39.9445C17.4396 39.9507 17.4857 39.9554 17.5326 39.9609C17.6021 39.9695 17.6724 39.9788 17.7427 39.9866H17.7466H17.763C17.9639 40.0094 18.1672 39.9895 18.3598 39.9283C18.5524 39.8671 18.73 39.766 18.8808 39.6315C19.0317 39.497 19.1525 39.3322 19.2353 39.1479C19.3181 38.9635 19.3611 38.7638 19.3615 38.5617V33.3461C19.3609 33.0033 19.2378 32.672 19.0143 32.4121C18.7907 32.1522 18.4816 31.9808 18.1427 31.929ZM18.5802 38.5656C18.5805 38.6515 18.5635 38.7366 18.5304 38.8159C18.4972 38.8952 18.4486 38.9671 18.3873 39.0273C18.2644 39.1495 18.0981 39.2181 17.9248 39.2179C17.8998 39.2179 17.874 39.2179 17.8466 39.214L17.7958 39.2085L17.4912 39.171L17.3349 39.1499L17.2787 39.1421L17.1419 39.1226L17.0466 39.1077C16.9638 39.0953 16.8802 39.0828 16.7966 39.0687L16.7568 39.0617C15.2907 38.8135 13.8582 38.3964 12.488 37.8187L12.4716 37.8117C12.3248 37.75 12.1677 37.6804 11.9912 37.6L11.863 37.5414L11.7459 37.4859C11.6841 37.457 11.6232 37.4289 11.5623 37.3992L11.5279 37.382C10.3507 36.8066 9.23502 36.1129 8.19819 35.3117L8.05366 35.1977L7.95366 35.1195L7.93335 35.1031C7.86205 35.0455 7.80366 34.9735 7.76194 34.8919C7.72022 34.8103 7.69612 34.7208 7.69118 34.6292C7.68625 34.5377 7.70059 34.4461 7.73329 34.3605C7.76599 34.2749 7.81632 34.197 7.88101 34.1321L11.5755 30.4384C11.6357 30.3782 11.7072 30.3304 11.7859 30.298C11.8646 30.2655 11.949 30.249 12.0341 30.2493C12.1773 30.2494 12.3167 30.2954 12.4318 30.3806L12.4693 30.4071C12.6615 30.547 12.8599 30.6829 13.0607 30.8118L13.1013 30.8376C13.1919 30.8954 13.2841 30.9532 13.3779 31.0095L13.4427 31.0478L13.4849 31.072C13.5568 31.1149 13.6287 31.1571 13.7013 31.1985L13.8099 31.2579L13.8966 31.3056L14.0302 31.3782L14.1865 31.4563L14.2724 31.5001L14.3615 31.5454C14.4443 31.586 14.5279 31.6235 14.6115 31.6634L14.6419 31.6774L14.7037 31.7063C14.8013 31.7509 14.9005 31.7938 15.0005 31.836L15.049 31.8571C15.1583 31.9024 15.2685 31.947 15.3794 31.9899L15.4068 32.0001C16.2396 32.3197 17.1037 32.5509 17.9849 32.6899L18.0123 32.6946C18.1683 32.7162 18.3114 32.7935 18.415 32.9122C18.5186 33.031 18.5759 33.1831 18.5763 33.3407L18.5802 38.5656ZM21.8615 8.0693H21.8724H21.8787C23.7722 8.36686 25.5671 9.11344 27.113 10.2466C27.3893 10.4522 27.7301 10.5519 28.0736 10.5275C28.4171 10.5032 28.7405 10.3563 28.9849 10.1138L32.6794 6.42011C32.822 6.2775 32.9328 6.10643 33.0048 5.91807C33.0768 5.72972 33.1082 5.52831 33.0971 5.32698C33.0859 5.12566 33.0325 4.92894 32.9402 4.74967C32.8479 4.5704 32.7189 4.4126 32.5615 4.28656L32.5482 4.27562C31.5693 3.49294 30.5188 2.80423 29.4107 2.21863L29.3943 2.21004C29.3162 2.16707 29.2318 2.12489 29.1498 2.08348L29.0873 2.05067L28.8873 1.95301C28.8505 1.93505 28.8138 1.9163 28.7771 1.89911C28.7232 1.87255 28.6685 1.84755 28.6146 1.82098L28.4646 1.74989L28.338 1.69208L28.149 1.60693L28.0763 1.5749L27.831 1.46865L27.8154 1.4624C26.3866 0.85831 24.8921 0.423334 23.3623 0.16633L23.3287 0.160861C23.2396 0.146018 23.1498 0.131956 23.0607 0.118675L22.9693 0.10305L22.7607 0.0780504L22.6083 0.0530509L22.4607 0.0350825L22.2583 0.0108642H22.2419C22.0411 -0.0118844 21.8378 0.00798971 21.6452 0.0691881C21.4525 0.130386 21.275 0.231532 21.1242 0.366017C20.9733 0.500503 20.8525 0.665301 20.7697 0.849648C20.6869 1.03399 20.6439 1.23374 20.6435 1.43584V6.65448C20.6445 6.99631 20.7673 7.32659 20.99 7.58593C21.2127 7.84527 21.5206 8.01667 21.8583 8.0693H21.8615ZM21.424 1.43349C21.4248 1.26074 21.4938 1.09529 21.6159 0.973133C21.7381 0.850975 21.9036 0.781983 22.0763 0.781162C22.1013 0.781162 22.1271 0.781162 22.1544 0.785068L22.2044 0.790536L22.5099 0.828036L22.6568 0.848348L22.7029 0.854598L22.8591 0.876472L22.9474 0.889753L23.2044 0.930377L23.238 0.935846C24.707 1.18368 26.1422 1.60158 27.5146 2.18113L27.5318 2.18817C27.6099 2.22098 27.688 2.25535 27.7662 2.28973L27.8365 2.32019L27.9748 2.38269L28.1388 2.46082C28.1693 2.4741 28.1982 2.48816 28.2279 2.503L28.3396 2.55535L28.4396 2.603L28.5818 2.67331L28.738 2.75144L28.7982 2.78268C28.8763 2.82331 28.9544 2.86081 29.0326 2.90456L29.0498 2.91393C30.0883 3.46344 31.0744 4.10673 31.9958 4.83577L32.074 4.89749C32.1451 4.95517 32.2033 5.02714 32.2449 5.10873C32.2865 5.19033 32.3104 5.27974 32.3153 5.37118C32.3202 5.46262 32.3058 5.55407 32.2731 5.63961C32.2404 5.72515 32.1901 5.80288 32.1255 5.86778L28.4302 9.56146C28.3701 9.6217 28.2986 9.66942 28.2198 9.70187C28.1411 9.73432 28.0568 9.75085 27.9716 9.75052C27.8282 9.75036 27.6886 9.70437 27.5732 9.61927C25.9321 8.41943 24.0297 7.62611 22.0224 7.30447L21.9787 7.29744C21.8237 7.27475 21.6821 7.19707 21.5797 7.07859C21.4773 6.96011 21.4209 6.80874 21.4208 6.65214L21.424 1.43349ZM17.763 0.0085205H17.7466H17.7427L17.5404 0.0327388L17.3927 0.0507072L17.2365 0.0718005L17.0318 0.10305L16.9396 0.117893C16.8505 0.131174 16.7607 0.145237 16.6716 0.16008L16.6373 0.165549C15.1076 0.423227 13.6132 0.85818 12.1841 1.46162L12.1685 1.46787C11.9912 1.54599 11.8154 1.62411 11.6412 1.70224L11.5349 1.75067L11.3787 1.82489C11.3263 1.84911 11.2748 1.87333 11.2224 1.89911L11.1123 1.95301L10.9123 2.05223L10.8498 2.08504C10.7716 2.12645 10.6857 2.16863 10.6052 2.2116L10.588 2.2202C9.48192 2.80548 8.43306 3.49311 7.45522 4.27406L7.44194 4.285C7.28455 4.41103 7.1555 4.56883 7.06321 4.74811C6.97092 4.92738 6.91747 5.1241 6.90634 5.32542C6.89521 5.52675 6.92665 5.72816 6.99861 5.91651C7.07057 6.10487 7.18144 6.27593 7.32398 6.41855L11.0162 10.1138C11.2604 10.3576 11.5842 10.5055 11.9284 10.5305C12.2726 10.5554 12.6143 10.4558 12.8912 10.2497C14.4371 9.11656 16.232 8.36999 18.1255 8.07242H18.1318H18.1427C18.4816 8.02057 18.7907 7.8492 19.0143 7.58929C19.2378 7.32938 19.3609 6.99807 19.3615 6.65526V1.43349C19.3611 1.2314 19.3181 1.03165 19.2353 0.847304C19.1525 0.662958 19.0317 0.498159 18.8808 0.363674C18.73 0.229188 18.5524 0.128043 18.3598 0.0668444C18.1672 0.00564601 17.9639 -0.0142281 17.763 0.0085205ZM18.5802 6.64901C18.5802 6.80541 18.5239 6.95658 18.4216 7.07491C18.3194 7.19325 18.1779 7.27084 18.0232 7.29353L17.9857 7.29978H17.9794C15.9719 7.6215 14.0693 8.41482 12.4279 9.61458C12.3125 9.69978 12.1729 9.74578 12.0294 9.74583C11.9443 9.74617 11.8599 9.72963 11.7812 9.69718C11.7025 9.66473 11.631 9.61701 11.5709 9.55677L7.87632 5.86778C7.81148 5.80276 7.76106 5.72482 7.72834 5.63903C7.69562 5.55323 7.68134 5.46151 7.68643 5.36982C7.69151 5.27814 7.71585 5.18856 7.75786 5.10691C7.79986 5.02526 7.85859 4.95337 7.93023 4.89592L8.10132 4.75999C8.99618 4.06012 9.9512 3.44079 10.9552 2.90925L10.9708 2.90065C11.049 2.85925 11.1271 2.82253 11.2052 2.77878L11.2654 2.74753L11.4169 2.66941L11.5638 2.59675L11.6576 2.55222L11.7654 2.50144C11.7982 2.48477 11.831 2.46915 11.8638 2.45457L11.9654 2.40847C12.1498 2.3241 12.3154 2.25223 12.4724 2.18426L12.4888 2.17801C13.8617 1.60012 15.2971 1.18379 16.7662 0.937409L16.799 0.93194L17.0568 0.891316L17.1451 0.877253L17.3013 0.85616L17.4076 0.841317L17.4958 0.829598L17.5802 0.819442L17.8044 0.792099L17.8529 0.78663C17.8771 0.78663 17.9029 0.782724 17.931 0.782724C18.1043 0.782722 18.2706 0.85135 18.3934 0.973596C18.5162 1.09584 18.5856 1.26176 18.5865 1.43506L18.5802 6.64901ZM10.313 27.2095C10.2904 27.1728 10.2662 27.1361 10.2404 27.1002C9.10934 25.5537 8.3649 23.7589 8.06929 21.8659C8.01708 21.5274 7.84553 21.2187 7.58563 20.9957C7.32573 20.7726 6.99461 20.6498 6.6521 20.6495H1.43569C1.12769 20.6504 0.828299 20.7513 0.58257 20.937C0.423201 21.0553 0.29 21.2053 0.191322 21.3775C0.0926436 21.5497 0.0306168 21.7405 0.00913251 21.9378C-0.00174209 22.0417 -0.00174209 22.1464 0.00913251 22.2503C0.0612158 22.731 0.131528 23.2078 0.22007 23.6807C0.26382 23.9151 0.312257 24.1495 0.364601 24.3877C0.390382 24.5049 0.417726 24.6221 0.442726 24.7393C0.698768 25.7952 1.04026 26.8285 1.46382 27.8291C1.48882 27.8884 1.5146 27.947 1.54194 28.0056C1.65444 28.2627 1.77085 28.5181 1.89273 28.7697V28.7736C1.93257 28.8556 1.97085 28.9361 2.01382 29.0173L2.04663 29.0837C2.08101 29.1517 2.11694 29.2197 2.1521 29.2876C2.17007 29.322 2.18726 29.3564 2.20523 29.39C2.23569 29.4486 2.26773 29.5064 2.29898 29.5642L2.36851 29.6939L2.44663 29.8353L2.53569 29.9915L2.59741 30.0962C2.63491 30.1611 2.67163 30.2251 2.70991 30.2892L2.75366 30.3603C2.79819 30.4384 2.84351 30.5103 2.8896 30.5845C2.89819 30.5993 2.90835 30.6142 2.91773 30.629C2.96929 30.7118 3.02085 30.7939 3.07398 30.8759L3.08335 30.8915C3.45308 31.4629 3.85151 32.0151 4.2771 32.5462V32.5508L4.28257 32.5579C4.40866 32.7153 4.56656 32.8444 4.74593 32.9367C4.92531 33.029 5.12214 33.0824 5.32356 33.0935C5.52499 33.1046 5.72649 33.073 5.91489 33.0009C6.10329 32.9288 6.27437 32.8178 6.41694 32.6751L10.1146 28.9837C10.3428 28.7537 10.4866 28.4532 10.5226 28.1312C10.5587 27.8091 10.4848 27.4844 10.313 27.2095ZM9.55913 28.4291L5.86851 32.1227C5.80354 32.1876 5.72564 32.2381 5.63987 32.2709C5.55411 32.3037 5.4624 32.318 5.37072 32.313C5.27904 32.308 5.18944 32.2837 5.10775 32.2418C5.02607 32.1999 4.95414 32.1412 4.89663 32.0696L4.86929 32.0352C4.46865 31.5337 4.09369 31.0122 3.74585 30.4728L3.73491 30.4571C3.68569 30.379 3.63569 30.3009 3.58648 30.2228L3.55913 30.1798C3.5146 30.1087 3.47163 30.0368 3.42866 29.965L3.38648 29.8962C3.35679 29.847 3.32788 29.797 3.29898 29.7462L3.22085 29.6103L3.16226 29.5056L3.10757 29.4087C3.09116 29.3798 3.07476 29.3509 3.05913 29.3212C3.04351 29.2915 2.99116 29.1962 2.99116 29.1962L2.96929 29.1478C2.94741 29.1072 2.92476 29.0697 2.90366 29.0259L2.83648 28.9056C2.80679 28.8486 2.77632 28.7915 2.74741 28.7337L2.71616 28.6705C2.67788 28.5923 2.63804 28.5181 2.6021 28.4416L2.59741 28.4314C2.48569 28.197 2.37241 27.9533 2.26148 27.697L2.2396 27.647C2.22137 27.6075 2.20418 27.5676 2.18804 27.5275C1.78119 26.5661 1.45303 25.5733 1.20679 24.5588C1.17944 24.4471 1.15366 24.3346 1.12866 24.2213C1.07866 23.9971 1.03179 23.769 0.990382 23.5424C0.906007 23.0901 0.838039 22.6276 0.787257 22.1682C0.781793 22.12 0.781793 22.0712 0.787257 22.0229C0.796664 21.9322 0.824777 21.8444 0.869823 21.765C0.914869 21.6857 0.97587 21.6166 1.04898 21.562C1.16185 21.4783 1.29906 21.4338 1.4396 21.4354H6.65523C6.8116 21.4354 6.96278 21.4916 7.08123 21.5937C7.19967 21.6958 7.2775 21.837 7.30054 21.9917C7.61819 24.0049 8.40973 25.9138 9.60991 27.5611C9.62163 27.5775 9.63335 27.5947 9.64429 27.6127C9.72501 27.7379 9.76085 27.8869 9.74594 28.0352C9.73104 28.1835 9.66629 28.3223 9.56226 28.4291H9.55913ZM0.0716325 18.366C0.164938 18.6487 0.343065 18.8958 0.581789 19.0738C0.78477 19.2251 1.0246 19.3192 1.27632 19.3464C1.32822 19.352 1.38037 19.3549 1.43257 19.355H6.65444C6.99714 19.3545 7.32836 19.2315 7.58826 19.0081C7.84816 18.7847 8.01961 18.4758 8.07163 18.1371C8.36617 16.2442 9.10983 14.4493 10.2404 12.9028C10.2677 12.8645 10.2927 12.8247 10.3185 12.7864C10.487 12.5117 10.5583 12.1884 10.5209 11.8683C10.4835 11.5482 10.3396 11.25 10.1123 11.0216L6.42007 7.33103H6.40054C6.25815 7.19092 6.08806 7.08209 5.90118 7.01152C5.71429 6.94095 5.51472 6.9102 5.31526 6.92123C5.11579 6.93227 4.92083 6.98484 4.74287 7.07559C4.5649 7.16634 4.40786 7.29326 4.28179 7.44822C4.06512 7.71905 3.85679 7.99508 3.65679 8.27633L3.61538 8.33492L3.45913 8.55523C3.42554 8.60366 3.39351 8.6521 3.36069 8.70054C3.32788 8.74897 3.29741 8.79194 3.26694 8.83803C3.22241 8.90522 3.17866 8.97241 3.13491 9.03959C3.11616 9.0685 3.09741 9.09584 3.07944 9.12475C3.02632 9.20287 2.97398 9.28959 2.92319 9.3724L2.89663 9.41459C2.8396 9.50755 2.78257 9.6013 2.72632 9.69505L2.71851 9.70755C2.66148 9.80364 2.60523 9.89973 2.54976 9.99739L2.54507 10.0044C2.4896 10.1013 2.43491 10.1989 2.38101 10.2966L2.3771 10.3044C2.32788 10.3943 2.27866 10.4849 2.23101 10.5755C2.22554 10.5864 2.21929 10.5966 2.21304 10.6075C2.16929 10.6919 2.12554 10.7755 2.08257 10.8607C2.07398 10.8786 2.06382 10.8958 2.05523 10.9146C2.02085 10.9817 1.98726 11.0505 1.95366 11.1185L1.90132 11.2239C1.87866 11.2708 1.85679 11.3185 1.83413 11.3661C1.81148 11.4138 1.78023 11.4794 1.75601 11.5364C1.74507 11.5591 1.73491 11.5825 1.72398 11.6059C1.67632 11.7091 1.63023 11.813 1.58413 11.9184C1.54741 12.002 1.51069 12.0856 1.47554 12.17C1.28596 12.6174 1.1133 13.0702 0.95757 13.5286C0.491936 14.8998 0.177569 16.3178 0.02007 17.7574C0.0145764 17.8093 0.0117082 17.8614 0.0114763 17.9136C0.011405 18.0166 0.022141 18.1192 0.0435075 18.2199C0.0435075 18.2699 0.0560075 18.3183 0.0716325 18.366ZM0.785695 17.8418C0.938928 16.4588 1.24228 15.0966 1.69038 13.7793C1.83882 13.3411 2.00679 12.902 2.18804 12.4731C2.22163 12.395 2.25757 12.3122 2.29273 12.2317C2.33648 12.1317 2.38179 12.0317 2.4271 11.9325L2.45757 11.8653L2.50913 11.7559L2.59976 11.5622L2.66929 11.4216C2.69507 11.3692 2.72085 11.3169 2.74741 11.2653L2.77476 11.2122C2.81538 11.1341 2.85679 11.0513 2.89976 10.9708L2.91694 10.9388C2.96226 10.8528 3.00913 10.7661 3.05679 10.6794L3.06226 10.6692C3.11069 10.5802 3.16304 10.4888 3.21851 10.3982L3.22788 10.3818C3.28023 10.2911 3.33413 10.1982 3.38882 10.106L3.39663 10.0943C3.45054 10.0036 3.50523 9.91379 3.56069 9.82395L3.58648 9.78333C3.63569 9.7052 3.68569 9.62708 3.73648 9.54896L3.80366 9.44584L3.91616 9.27396L4.00679 9.14115L4.03882 9.0935L4.10132 9.00209C4.15054 8.931 4.20054 8.86069 4.25132 8.7896L4.29038 8.73413C4.46694 8.48804 4.6521 8.24352 4.83726 8.00602L4.88882 7.94274C4.94608 7.87217 5.01749 7.81438 5.09844 7.77308C5.1794 7.73179 5.26811 7.70791 5.35885 7.70297C5.4496 7.69804 5.54037 7.71217 5.62532 7.74445C5.71028 7.77673 5.78753 7.82645 5.8521 7.8904L6.09429 8.13024H6.10991L9.55444 11.5747C9.65806 11.6794 9.72341 11.816 9.73999 11.9624C9.75657 12.1088 9.72341 12.2565 9.64585 12.3817C9.62944 12.4083 9.61772 12.427 9.60601 12.4427C8.40444 14.0912 7.61281 16.0022 7.29663 18.0175C7.27377 18.1724 7.19601 18.3138 7.07755 18.416C6.95909 18.5183 6.80781 18.5746 6.65132 18.5746H1.43413C1.40991 18.5746 1.38491 18.5746 1.36069 18.5707C1.24749 18.5582 1.13962 18.5159 1.04819 18.448C0.975924 18.3935 0.915125 18.3253 0.869289 18.2472C0.846932 18.2078 0.828611 18.1661 0.814601 18.123C0.807165 18.1016 0.801162 18.0796 0.796632 18.0574C0.786636 18.0114 0.781658 17.9646 0.781789 17.9175C0.781789 17.8902 0.781789 17.8668 0.785695 17.8418ZM28.9779 29.8884C28.7341 29.6464 28.4117 29.4997 28.0691 29.4747C27.7264 29.4498 27.3862 29.5483 27.1099 29.7525L27.1013 29.7579C26.9117 29.896 26.718 30.0285 26.5201 30.1556L26.4841 30.179C26.3974 30.2337 26.3107 30.2884 26.2224 30.3415L26.1333 30.3939C26.0623 30.436 25.9912 30.4782 25.9185 30.5189C25.8716 30.5454 25.8232 30.5712 25.7755 30.597C25.7279 30.6228 25.6654 30.6579 25.6091 30.6876C25.5529 30.7173 25.4818 30.7524 25.4177 30.7853C25.3771 30.8056 25.3396 30.8274 25.2951 30.8478C25.2169 30.886 25.1388 30.9259 25.0607 30.9587C25.0326 30.972 25.0052 30.986 24.9771 30.9985C24.8841 31.0407 24.7912 31.0806 24.6974 31.1204L24.6521 31.1399C24.5466 31.1845 24.4396 31.2274 24.3326 31.2681L24.3224 31.2727C23.5321 31.5763 22.7119 31.7952 21.8755 31.9259H21.8693H21.8583C21.5195 31.9777 21.2103 32.1491 20.9868 32.409C20.7633 32.6689 20.6401 33.0002 20.6396 33.343V38.5625C20.64 38.7645 20.683 38.9643 20.7658 39.1486C20.8486 39.333 20.9694 39.4978 21.1202 39.6323C21.2711 39.7668 21.4486 39.8679 21.6413 39.9291C21.8339 39.9903 22.0372 40.0102 22.238 39.9874H22.2544C22.3248 39.9796 22.3951 39.9702 22.4646 39.9616C22.5115 39.9562 22.5576 39.9515 22.6037 39.9452L22.7654 39.9226L22.9662 39.8952L23.0646 39.8796C23.1513 39.8663 23.2388 39.8531 23.3263 39.8382L23.3677 39.8312C24.8945 39.574 26.3863 39.1403 27.813 38.539L27.8318 38.5312C27.9998 38.4601 28.1662 38.3859 28.3318 38.3109L28.4646 38.2507L28.5677 38.2015L28.7779 38.1023L28.813 38.0843C30.0396 37.487 31.2019 36.7658 32.2818 35.932L32.3833 35.8539L32.5443 35.7281L32.5544 35.7203C32.7119 35.5942 32.8409 35.4363 32.9332 35.257C33.0255 35.0777 33.079 34.8809 33.0901 34.6795C33.1012 34.4781 33.0698 34.2766 32.9978 34.0882C32.9258 33.8998 32.815 33.7287 32.6724 33.586L28.9779 29.8884ZM32.3099 34.6328C32.3054 34.7247 32.2813 34.8145 32.2393 34.8963C32.1973 34.9781 32.1382 35.0499 32.0662 35.107L32.024 35.1391L32.0193 35.1438L31.8037 35.3117C30.7658 36.113 29.6488 36.8062 28.4701 37.3804L28.438 37.3961C28.3748 37.4273 28.3138 37.4554 28.2521 37.4843L28.1365 37.5398L28.0068 37.5984C27.8302 37.6765 27.6732 37.7484 27.5271 37.8101L27.5162 37.814C26.1445 38.3939 24.7102 38.8126 23.2419 39.0617L23.1998 39.0687C23.1177 39.0828 23.0341 39.0953 22.9505 39.1077L22.8552 39.1234L22.7193 39.1421L22.5068 39.171L22.1943 39.2093L22.1623 39.2132C22.1302 39.2132 22.1044 39.2179 22.0794 39.2179C21.9061 39.2179 21.7399 39.1493 21.6171 39.027C21.4942 38.9048 21.4248 38.7389 21.424 38.5656V33.3461C21.424 33.1897 21.4803 33.0386 21.5826 32.9202C21.6848 32.8019 21.8263 32.7243 21.981 32.7016L22.0255 32.6938C22.9046 32.5544 23.7666 32.3232 24.5974 32.004L24.6177 31.9962C24.7294 31.9532 24.8404 31.9087 24.9513 31.8626L25.0013 31.8407C25.0998 31.7993 25.199 31.7563 25.2974 31.7118L25.3591 31.6829L25.3873 31.6696C25.4708 31.6306 25.5552 31.5915 25.638 31.5509L25.7263 31.5063L25.8154 31.461L25.9716 31.3829L26.1013 31.3126L26.1927 31.2626C26.2287 31.2431 26.2654 31.2235 26.3005 31.2032C26.3787 31.161 26.449 31.1181 26.5224 31.0743L26.563 31.0509C26.5833 31.0392 26.6037 31.0274 26.6232 31.0149C26.7185 30.9579 26.8107 30.9001 26.9029 30.8407L26.9396 30.8181C27.1466 30.6845 27.3505 30.5454 27.5482 30.4017L27.5669 30.3876C27.683 30.3012 27.8238 30.2544 27.9685 30.254C28.0537 30.2536 28.138 30.2701 28.2168 30.3025C28.2955 30.335 28.367 30.3828 28.4271 30.4431L32.1216 34.1368C32.1864 34.2014 32.2367 34.279 32.2691 34.3646C32.3016 34.4501 32.3155 34.5415 32.3099 34.6328Z" fill="white"/>
<path d="M19.9172 22.9566H18.6531V25.1511H16.4758V22.9566H11.9531V21.3942L16.5914 14.5974H18.6523V21.2301H19.9164L19.9172 22.9566ZM16.4758 21.2278V19.4309C16.4758 19.3208 16.4812 19.1403 16.4922 18.8911C16.5031 18.6419 16.5117 18.3895 16.5172 18.1341C16.5227 17.8786 16.5312 17.652 16.5422 17.4528C16.5531 17.2536 16.5586 17.1481 16.5586 17.1403H16.5086C16.4094 17.3286 16.3063 17.5224 16.2016 17.7224C16.0969 17.9223 15.982 18.113 15.8602 18.3036L13.932 21.2293L16.4758 21.2278Z" fill="white"/>
<path d="M28.0471 19.8645C28.0471 21.7489 27.7479 23.1259 27.1494 23.9957C26.551 24.8655 25.6135 25.3006 24.3369 25.3012C21.889 25.3012 20.665 23.489 20.665 19.8645C20.665 17.9896 20.9617 16.6154 21.5549 15.742C22.1481 14.8685 23.0762 14.4308 24.3393 14.4287C26.8111 14.4287 28.0471 16.2407 28.0471 19.8645ZM22.8603 19.8645C22.8603 21.1614 22.9739 22.0898 23.201 22.6496C23.4281 23.2095 23.8077 23.4892 24.34 23.4887C24.8609 23.4887 25.2377 23.2061 25.4705 22.6411C25.7033 22.076 25.8197 21.1505 25.8197 19.8645C25.8197 18.5682 25.7005 17.6375 25.4619 17.0724C25.2234 16.5073 24.8494 16.2245 24.34 16.224C23.7968 16.224 23.4145 16.5068 23.1932 17.0724C22.9718 17.638 22.8606 18.5687 22.8596 19.8645H22.8603Z" fill="white"/>
</g>
</g>
<defs>
<clipPath id="clip0_4072_16401">
<rect width="40" height="40" fill="white" transform="translate(0.333008)"/>
</clipPath>
<clipPath id="clip1_4072_16401">
<rect width="40" height="40" fill="white"/>
</clipPath>
</defs>
</svg>
