<svg width="40" height="40" viewBox="0 0 40 40" fill="none" xmlns="http://www.w3.org/2000/svg">
<g clip-path="url(#clip0_4072_16410)">
<path d="M37.7737 22.7184V14.8438C37.7737 14.1795 37.6609 13.5294 37.4397 12.9067L38.1655 11.8557C39.3464 10.1457 38.9159 7.79224 37.2052 6.60993L29.4152 1.23056C27.7853 0.104661 25.4229 0.374817 24.1234 2.25626L17.3294 0.530677C15.4724 0.0593877 13.5776 1.18603 13.1063 3.04298L11.5796 9.0547H8.23535C5.0432 9.0547 2.44629 11.6516 2.44629 14.8438V31.7656C2.44629 34.9578 5.0432 37.5547 8.23535 37.5547H31.9854C35.1775 37.5547 37.7744 34.9578 37.7744 31.7656V30.2738C38.7897 30.0668 39.5557 29.1672 39.5557 28.0918V24.9004C39.5557 23.825 38.7897 22.9254 37.7744 22.7184H37.7737ZM24.9027 2.69638C25.8059 1.38939 27.6035 1.0606 28.9097 1.96384L36.6997 7.34322C38.0067 8.24646 38.3355 10.0433 37.433 11.3503L34.9177 14.9929H23.2142C23.0717 14.7287 22.8698 14.5016 22.6167 14.3272L21.4381 13.5138C20.5646 12.9096 19.3667 13.1286 18.7625 14.0029L18.079 14.9922H16.4113L24.9027 2.69638ZM36.883 14.9922H35.9991L36.7821 13.8581C36.8719 14.2938 36.883 14.607 36.883 14.9922ZM22.0126 14.9922H19.1611L19.4951 14.509C19.8194 14.04 20.4621 13.922 20.9312 14.2463L22.0126 14.9922ZM22.3948 2.73646L23.5838 3.03853L21.5814 5.93751L22.3948 2.73646ZM17.7457 1.55564L21.5316 2.51751L20.1282 8.0431L15.3292 14.9922H14.3332L17.7457 1.55564ZM13.9695 3.26267C14.302 1.95271 15.5763 1.13779 16.8804 1.34708L13.4143 14.9922H10.9904L13.9695 3.26267ZM8.23461 9.94533H11.3525L10.0708 14.9922H9.23656C8.72519 14.9922 8.30883 14.5758 8.30883 14.0645C8.30883 13.5531 8.72519 13.1367 9.23656 13.1367C9.48223 13.1367 9.68187 12.9371 9.68187 12.6914C9.68187 12.4458 9.48223 12.2461 9.23656 12.2461C8.23387 12.2461 7.4182 13.0618 7.4182 14.0645C7.4182 15.0672 8.23387 15.8828 9.23656 15.8828H36.883V19.0742H8.23461C5.66293 19.0742 3.5232 17.074 3.34805 14.5157C3.51801 11.967 5.64363 9.94533 8.23461 9.94533ZM31.9846 36.6641H8.23461C5.53379 36.6641 3.33617 34.4665 3.33617 31.7656V30.9856C4.36187 32.6117 6.17355 33.6953 8.23461 33.6953H36.486C35.7356 35.4395 34.0004 36.6641 31.9846 36.6641ZM36.771 32.8047H8.23461C5.53379 32.8047 3.33617 30.6071 3.33617 27.9063V17.2574C4.36559 18.8872 6.1832 19.9649 8.23461 19.9649H36.883V22.6738H29.1643C27.9367 22.6738 26.9377 23.6728 26.9377 24.9004V28.0918C26.9377 29.3194 27.9367 30.3184 29.1643 30.3184H36.883C36.883 31.7901 36.9135 32.1494 36.771 32.8047ZM38.6643 28.0918C38.6643 28.8281 38.0646 29.4277 37.3284 29.4277H29.1643C28.428 29.4277 27.8284 28.8281 27.8284 28.0918V24.9004C27.8284 24.1642 28.428 23.5645 29.1643 23.5645H37.3284C38.0646 23.5645 38.6643 24.1642 38.6643 24.9004V28.0918Z" fill="white"/>
<path d="M31.0195 24.9375C30.1601 24.9375 29.4609 25.6366 29.4609 26.4961C29.4609 27.3555 30.1601 28.0547 31.0195 28.0547C31.879 28.0547 32.5781 27.3555 32.5781 26.4961C32.5781 25.6366 31.879 24.9375 31.0195 24.9375ZM31.0195 27.1641C30.6514 27.1641 30.3516 26.8642 30.3516 26.4961C30.3516 26.128 30.6514 25.8281 31.0195 25.8281C31.3877 25.8281 31.6875 26.128 31.6875 26.4961C31.6875 26.8642 31.3877 27.1641 31.0195 27.1641Z" fill="white"/>
<path d="M30.9479 9.65732L31.2522 9.86735C31.7079 10.182 32.3313 10.064 32.6423 9.61278L33.6917 8.09278C33.8402 7.94435 34.091 7.15392 33.4372 6.70193L33.1336 6.49189C32.6794 6.17794 32.0574 6.2915 31.7428 6.74646L30.6933 8.26646C30.3801 8.71993 30.4944 9.34337 30.9479 9.65657V9.65732ZM31.4266 8.77337L32.476 7.25337C32.4976 7.22294 32.531 7.20661 32.5658 7.20661C32.6119 7.20661 32.5985 7.20587 32.9317 7.43595C32.9815 7.47009 32.9933 7.53837 32.9592 7.58735L31.9098 9.10735C31.8756 9.15708 31.8073 9.16896 31.7583 9.13556L31.4541 8.92552C31.4043 8.89138 31.3924 8.8231 31.4258 8.77411L31.4266 8.77337Z" fill="white"/>
<path d="M27.9459 7.58444L28.2495 7.79448C28.7044 8.10842 29.3257 7.99487 29.6403 7.53991L30.6898 6.01991C30.7366 6.01991 31.1826 5.14561 30.4352 4.62979L30.1309 4.41975C29.6774 4.10655 29.054 4.22084 28.7408 4.67432L27.6914 6.19432C27.3782 6.6478 27.4924 7.27123 27.9459 7.58444ZM28.4239 6.69975L29.4733 5.17975C29.4949 5.14932 29.5283 5.13299 29.5632 5.13299C29.6092 5.13299 29.601 5.13596 29.9291 5.36233C29.9788 5.39647 29.9907 5.46475 29.9565 5.51373L28.9071 7.03373C28.8729 7.08346 28.8046 7.09534 28.7557 7.06119L28.4521 6.85116C28.4024 6.81701 28.3905 6.74873 28.4239 6.69975Z" fill="white"/>
<path d="M30.6033 10.8063L30.299 10.5963C29.8456 10.2831 29.2221 10.3974 28.9089 10.8508L27.8854 12.333C27.5715 12.7872 27.6851 13.4092 28.14 13.7231L28.4443 13.9331C28.9 14.2478 29.5234 14.1298 29.8352 13.6786L30.8586 12.1964C31.1718 11.7429 31.0575 11.1195 30.6041 10.8063H30.6033ZM30.1246 11.691L29.1011 13.1731C29.067 13.2229 28.9987 13.2347 28.9497 13.2006L28.6454 12.9906C28.5957 12.9564 28.5831 12.8889 28.618 12.8392L29.6415 11.357C29.6756 11.3073 29.7439 11.2954 29.7929 11.3288L30.0972 11.5388C30.1469 11.573 30.1588 11.6413 30.1246 11.6902V11.691Z" fill="white"/>
<path d="M24.2804 7.69059L24.5847 7.90063C25.0397 8.21457 25.6616 8.10102 25.9748 7.64606L28.2845 4.30176C28.5984 3.84754 28.4849 3.22559 28.0299 2.91164L27.7256 2.7016C27.2707 2.38766 26.6495 2.50121 26.3348 2.95617L24.0251 6.30047C23.7111 6.75469 23.8247 7.37664 24.2797 7.69133L24.2804 7.69059ZM24.7591 6.8059L27.0688 3.4616C27.1029 3.41188 27.1705 3.39926 27.2202 3.4334L27.5245 3.64344C27.5742 3.67758 27.5868 3.74512 27.552 3.79484L25.2423 7.13914C25.2074 7.18961 25.1399 7.20074 25.0909 7.1666L24.7866 6.95656C24.7368 6.92242 24.725 6.85414 24.7591 6.80516V6.8059Z" fill="white"/>
</g>
<defs>
<clipPath id="clip0_4072_16410">
<rect width="38" height="38" fill="white" transform="translate(2)"/>
</clipPath>
</defs>
</svg>
